AnekGurmukhi-ExpandedThin.ufo
<glyph name="percent" format="2">
  <advance width="1724"/>
  <unicode hex="0025"/>
  <outline>
    <contour>
      <point x="345" y="0" type="line"/>
      <point x="386" y="0" type="line"/>
      <point x="1379" y="1278" type="line"/>
      <point x="1338" y="1278" type="line"/>
    </contour>
    <contour>
      <point x="1297" y="-21" type="curve" smooth="yes"/>
      <point x="1482" y="-21"/>
      <point x="1596" y="94"/>
      <point x="1596" y="281" type="curve"/>
      <point x="1596" y="285" type="line"/>
      <point x="1596" y="472"/>
      <point x="1482" y="587"/>
      <point x="1297" y="587" type="curve" smooth="yes"/>
      <point x="1114" y="587"/>
      <point x="998" y="472"/>
      <point x="998" y="285" type="curve"/>
      <point x="998" y="281" type="line"/>
      <point x="998" y="94"/>
      <point x="1112" y="-21"/>
    </contour>
    <contour>
      <point x="1297" y="11" type="curve" smooth="yes"/>
      <point x="1137" y="11"/>
      <point x="1034" y="109"/>
      <point x="1034" y="281" type="curve" smooth="yes"/>
      <point x="1034" y="285" type="line" smooth="yes"/>
      <point x="1034" y="457"/>
      <point x="1135" y="555"/>
      <point x="1297" y="555" type="curve" smooth="yes"/>
      <point x="1457" y="555"/>
      <point x="1560" y="457"/>
      <point x="1560" y="285" type="curve" smooth="yes"/>
      <point x="1560" y="281" type="line" smooth="yes"/>
      <point x="1560" y="109"/>
      <point x="1459" y="11"/>
    </contour>
    <contour>
      <point x="427" y="691" type="curve" smooth="yes"/>
      <point x="610" y="691"/>
      <point x="726" y="806"/>
      <point x="726" y="993" type="curve"/>
      <point x="726" y="997" type="line"/>
      <point x="726" y="1184"/>
      <point x="612" y="1299"/>
      <point x="427" y="1299" type="curve" smooth="yes"/>
      <point x="241" y="1299"/>
      <point x="128" y="1184"/>
      <point x="128" y="997" type="curve"/>
      <point x="128" y="993" type="line"/>
      <point x="128" y="806"/>
      <point x="241" y="691"/>
    </contour>
    <contour>
      <point x="427" y="723" type="curve" smooth="yes"/>
      <point x="266" y="723"/>
      <point x="163" y="820"/>
      <point x="163" y="993" type="curve" smooth="yes"/>
      <point x="163" y="997" type="line" smooth="yes"/>
      <point x="163" y="1169"/>
      <point x="265" y="1267"/>
      <point x="427" y="1267" type="curve" smooth="yes"/>
      <point x="587" y="1267"/>
      <point x="690" y="1169"/>
      <point x="690" y="997" type="curve" smooth="yes"/>
      <point x="690" y="993" type="line" smooth="yes"/>
      <point x="690" y="820"/>
      <point x="589" y="723"/>
    </contour>
  </outline>
</glyph>
<glyph name="Oslash" format="2">
  <advance width="1653"/>
  <unicode hex="00D8"/>
  <anchor x="827" y="0" name="bottom"/>
  <anchor x="827" y="639" name="center"/>
  <anchor x="1488" y="10" name="ogonek"/>
  <anchor x="827" y="1278" name="top"/>
  <anchor x="20" y="1278" name="topleft"/>
  <anchor x="1633" y="1278" name="topright"/>
  <outline>
    <contour>
      <point x="826" y="-21" type="curve" smooth="yes"/>
      <point x="1267" y="-21"/>
      <point x="1511" y="213"/>
      <point x="1511" y="629" type="curve"/>
      <point x="1511" y="650" type="line"/>
      <point x="1512" y="1061"/>
      <point x="1262" y="1299"/>
      <point x="826" y="1299" type="curve" smooth="yes"/>
      <point x="386" y="1299"/>
      <point x="142" y="1066"/>
      <point x="142" y="650" type="curve"/>
      <point x="142" y="629" type="line"/>
      <point x="142" y="218"/>
      <point x="391" y="-21"/>
    </contour>
    <contour>
      <point x="163" y="-45" type="line"/>
      <point x="214" y="-45" type="line"/>
      <point x="371" y="123" type="line"/>
      <point x="384" y="137" type="line"/>
      <point x="1301" y="1118" type="line"/>
      <point x="1315" y="1133" type="line"/>
      <point x="1491" y="1322" type="line"/>
      <point x="1440" y="1322" type="line"/>
      <point x="1287" y="1158" type="line"/>
      <point x="1274" y="1144" type="line"/>
      <point x="355" y="160" type="line"/>
      <point x="341" y="145" type="line"/>
    </contour>
    <contour>
      <point x="826" y="16" type="curve" smooth="yes"/>
      <point x="414" y="16"/>
      <point x="183" y="241"/>
      <point x="183" y="629" type="curve" smooth="yes"/>
      <point x="183" y="650" type="line" smooth="yes"/>
      <point x="183" y="1044"/>
      <point x="409" y="1262"/>
      <point x="826" y="1262" type="curve" smooth="yes"/>
      <point x="1239" y="1262"/>
      <point x="1470" y="1039"/>
      <point x="1470" y="650" type="curve" smooth="yes"/>
      <point x="1470" y="629" type="line" smooth="yes"/>
      <point x="1470" y="236"/>
      <point x="1244" y="16"/>
    </contour>
  </outline>
</glyph>
<glyph name="Danda.gm" format="2">
  <advance width="597"/>
  <unicode hex="0964"/>
  <outline>
    <contour>
      <point x="280" y="0" type="line"/>
      <point x="317" y="0" type="line"/>
      <point x="317" y="1173" type="line"/>
      <point x="280" y="1173" type="line"/>
    </contour>
  </outline>
</glyph>
<glyph name="Doubledanda.gm" format="2">
  <advance width="1117"/>
  <unicode hex="0965"/>
  <outline>
    <contour>
      <point x="796" y="0" type="line"/>
      <point x="837" y="0" type="line"/>
      <point x="837" y="1173" type="line"/>
      <point x="796" y="1173" type="line"/>
    </contour>
    <contour>
      <point x="280" y="0" type="line"/>
      <point x="321" y="0" type="line"/>
      <point x="321" y="1173" type="line"/>
      <point x="280" y="1173" type="line"/>
    </contour>
  </outline>
</glyph>
<glyph name="AddakBindi.gm" format="2">
  <unicode hex="0A01"/>
  <anchor x="560" y="1200" name="_top"/>
  <outline>
    <contour>
      <point x="393.5" y="1631" type="curve" smooth="yes"/>
      <point x="434.9" y="1631"/>
      <point x="452" y="1653.5"/>
      <point x="452" y="1682.3" type="curve" smooth="yes"/>
      <point x="452" y="1685" type="line" smooth="yes"/>
      <point x="452" y="1713.8"/>
      <point x="434" y="1736.3"/>
      <point x="393.5" y="1736.3" type="curve" smooth="yes"/>
      <point x="353" y="1736.3"/>
      <point x="335" y="1713.8"/>
      <point x="335" y="1685" type="curve" smooth="yes"/>
      <point x="335" y="1682.3" type="line" smooth="yes"/>
      <point x="335" y="1653.5"/>
      <point x="353" y="1631"/>
    </contour>
    <component base="Addak.gm"/>
  </outline>
</glyph>
<glyph name="Bindi.gm" format="2">
  <unicode hex="0A02"/>
  <anchor x="600" y="1200" name="_top"/>
  <outline>
    <contour>
      <point x="415" y="1490" type="curve" smooth="yes"/>
      <point x="461" y="1490"/>
      <point x="480" y="1515"/>
      <point x="480" y="1547" type="curve" smooth="yes"/>
      <point x="480" y="1550" type="line" smooth="yes"/>
      <point x="480" y="1582"/>
      <point x="460" y="1607"/>
      <point x="415" y="1607" type="curve" smooth="yes"/>
      <point x="370" y="1607"/>
      <point x="350" y="1582"/>
      <point x="350" y="1550" type="curve" smooth="yes"/>
      <point x="350" y="1547" type="line" smooth="yes"/>
      <point x="350" y="1515"/>
      <point x="370" y="1490"/>
    </contour>
  </outline>
</glyph>
<glyph name="Visarga.gm" format="2">
  <advance width="574"/>
  <unicode hex="0A03"/>
  <outline>
    <contour>
      <point x="286" y="792" type="curve" smooth="yes"/>
      <point x="329" y="792"/>
      <point x="353" y="813"/>
      <point x="353" y="852" type="curve" smooth="yes"/>
      <point x="353" y="855" type="line" smooth="yes"/>
      <point x="353" y="892"/>
      <point x="329" y="913"/>
      <point x="286" y="913" type="curve" smooth="yes"/>
      <point x="245" y="913"/>
      <point x="220" y="892"/>
      <point x="220" y="855" type="curve" smooth="yes"/>
      <point x="220" y="852" type="line" smooth="yes"/>
      <point x="220" y="813"/>
      <point x="245" y="792"/>
    </contour>
    <contour>
      <point x="287" y="218" type="curve" smooth="yes"/>
      <point x="330" y="218"/>
      <point x="354" y="239"/>
      <point x="354" y="278" type="curve" smooth="yes"/>
      <point x="354" y="281" type="line" smooth="yes"/>
      <point x="354" y="318"/>
      <point x="330" y="339"/>
      <point x="287" y="339" type="curve" smooth="yes"/>
      <point x="246" y="339"/>
      <point x="221" y="318"/>
      <point x="221" y="281" type="curve" smooth="yes"/>
      <point x="221" y="278" type="line" smooth="yes"/>
      <point x="221" y="239"/>
      <point x="246" y="218"/>
    </contour>
  </outline>
</glyph>
<glyph name="VowelA.gm" format="2">
  <advance width="2071"/>
  <unicode hex="0A05"/>
  <anchor x="1971" y="1200" name="top"/>
  <outline>
    <contour>
      <point x="1013" y="112" type="curve"/>
      <point x="1051" y="112" type="line"/>
      <point x="1074" y="258"/>
      <point x="1087" y="439"/>
      <point x="1087" y="629" type="curve" smooth="yes"/>
      <point x="1087" y="752"/>
      <point x="1082" y="878"/>
      <point x="1069" y="1034" type="curve"/>
      <point x="1031" y="1034" type="line"/>
      <point x="295" y="634" type="line"/>
      <point x="295" y="594" type="line"/>
      <point x="1049" y="1004" type="line"/>
      <point x="1034" y="999" type="line"/>
      <point x="1045" y="864"/>
      <point x="1050" y="757"/>
      <point x="1050" y="652" type="curve" smooth="yes"/>
      <point x="1050" y="455"/>
      <point x="1037" y="266"/>
    </contour>
    <contour>
      <point x="244" y="282" type="curve"/>
      <point x="282" y="282" type="line"/>
      <point x="304" y="429"/>
      <point x="318" y="609"/>
      <point x="318" y="799" type="curve" smooth="yes"/>
      <point x="318" y="922"/>
      <point x="313" y="1048"/>
      <point x="302" y="1173" type="curve"/>
      <point x="27" y="1173" type="line"/>
      <point x="30" y="1139" type="line"/>
      <point x="267" y="1139" type="line"/>
      <point x="276" y="1034"/>
      <point x="281" y="927"/>
      <point x="281" y="822" type="curve" smooth="yes"/>
      <point x="281" y="625"/>
      <point x="268" y="436"/>
    </contour>
    <contour>
      <point x="1061" y="430" type="line"/>
      <point x="1786" y="804" type="line"/>
      <point x="1786" y="843" type="line"/>
      <point x="1061" y="469" type="line"/>
    </contour>
    <component base="_cap.shiro_left"/>
    <component base="_danda" xOffset="1589"/>
  </outline>
</glyph>
<glyph name="VowelEe.gm" format="2">
  <advance width="1574"/>
  <unicode hex="0A0F"/>
  <anchor x="1666" y="1348" name="top1"/>
  <outline>
    <contour>
      <point x="900" y="-18" type="curve" smooth="yes"/>
      <point x="1089" y="-18"/>
      <point x="1250" y="16"/>
      <point x="1396" y="75" type="curve"/>
      <point x="1408" y="119" type="line"/>
      <point x="1264" y="55"/>
      <point x="1098" y="17"/>
      <point x="900" y="17" type="curve" smooth="yes"/>
      <point x="508" y="17"/>
      <point x="226" y="208"/>
      <point x="226" y="466" type="curve" smooth="yes"/>
      <point x="226" y="510" type="line"/>
      <point x="196" y="475" type="line"/>
      <point x="512" y="596"/>
      <point x="913" y="650"/>
      <point x="1331" y="653" type="curve"/>
      <point x="1331" y="1156" type="line"/>
      <point x="1294" y="1156" type="line"/>
      <point x="1294" y="686" type="line"/>
      <point x="1112" y="685"/>
      <point x="934" y="673"/>
      <point x="766" y="650" type="curve"/>
      <point x="746" y="647" type="line"/>
      <point x="543" y="617"/>
      <point x="355" y="572"/>
      <point x="189" y="509" type="curve"/>
      <point x="189" y="466" type="line" smooth="yes"/>
      <point x="189" y="187"/>
      <point x="485" y="-18"/>
    </contour>
    <contour>
      <point x="758" y="622" type="line"/>
      <point x="801" y="626" type="line"/>
      <point x="852" y="652" type="line"/>
      <point x="435" y="652"/>
      <point x="246" y="848"/>
      <point x="246" y="1091" type="curve" smooth="yes"/>
      <point x="246" y="1153" type="line"/>
      <point x="209" y="1153" type="line"/>
      <point x="209" y="1091" type="line" smooth="yes"/>
      <point x="209" y="835"/>
      <point x="411" y="645"/>
      <point x="750" y="628" type="curve"/>
    </contour>
    <contour>
      <point x="34" y="1139" type="line"/>
      <point x="226" y="1139" type="line"/>
      <point x="228" y="1139" type="line"/>
      <point x="1312" y="1139" type="line"/>
      <point x="1314" y="1139" type="line"/>
      <point x="1574" y="1139" type="line"/>
      <point x="1574" y="1173" type="line"/>
      <point x="34" y="1173" type="line"/>
    </contour>
    <contour>
      <point x="1296" y="1159" type="line"/>
      <point x="1330" y="1159" type="line"/>
      <point x="1262" y="1482"/>
      <point x="1058" y="1680"/>
      <point x="561" y="1680" type="curve"/>
      <point x="476" y="1680"/>
      <point x="420" y="1676"/>
      <point x="335" y="1667" type="curve"/>
      <point x="324" y="1630" type="line"/>
      <point x="407" y="1641"/>
      <point x="480" y="1645"/>
      <point x="563" y="1645" type="curve"/>
      <point x="1027" y="1645"/>
      <point x="1220" y="1465"/>
      <point x="1293" y="1171" type="curve" smooth="yes"/>
    </contour>
    <component base="_cap.shiro_left"/>
    <component base="_cap.shiro_right" xOffset="1373"/>
  </outline>
</glyph>
<glyph name="Ka.gm" format="2">
  <advance width="1683"/>
  <unicode hex="0A15"/>
  <anchor x="1855" y="100" name="bottom"/>
  <anchor x="1490" y="100" name="bottom1"/>
  <anchor x="1651" y="1200" name="top"/>
  <outline>
    <contour>
      <point x="17" y="1139" type="line"/>
      <point x="1683" y="1139" type="line"/>
      <point x="1683" y="1173" type="line"/>
      <point x="17" y="1173" type="line"/>
    </contour>
    <contour>
      <point x="1451" y="0" type="line"/>
      <point x="1489" y="0" type="line"/>
      <point x="1450" y="149" type="line" smooth="yes"/>
      <point x="1406" y="317"/>
      <point x="1332" y="467"/>
      <point x="1232" y="588" type="curve"/>
      <point x="1231" y="593" type="line"/>
      <point x="1075" y="772"/>
      <point x="874" y="886"/>
      <point x="590" y="886" type="curve" smooth="yes"/>
      <point x="299" y="886"/>
      <point x="144" y="770"/>
      <point x="144" y="571" type="curve" smooth="yes"/>
      <point x="144" y="566" type="line" smooth="yes"/>
      <point x="144" y="365"/>
      <point x="301" y="255"/>
      <point x="589" y="255" type="curve" smooth="yes"/>
      <point x="855" y="255"/>
      <point x="1067" y="352"/>
      <point x="1230" y="560" type="curve"/>
      <point x="1232" y="562" type="line"/>
      <point x="1333" y="692"/>
      <point x="1404" y="845"/>
      <point x="1456" y="1040" type="curve" smooth="yes"/>
      <point x="1486" y="1153" type="line"/>
      <point x="1447" y="1153" type="line"/>
      <point x="1419" y="1042" type="line" smooth="yes"/>
      <point x="1374" y="862"/>
      <point x="1300" y="712"/>
      <point x="1208" y="590" type="curve"/>
      <point x="1207" y="588" type="line"/>
      <point x="1035" y="374"/>
      <point x="836" y="290"/>
      <point x="589" y="290" type="curve" smooth="yes"/>
      <point x="324" y="290"/>
      <point x="183" y="392"/>
      <point x="183" y="568" type="curve" smooth="yes"/>
      <point x="183" y="570" type="line" smooth="yes"/>
      <point x="183" y="743"/>
      <point x="321" y="851"/>
      <point x="589" y="851" type="curve" smooth="yes"/>
      <point x="872" y="851"/>
      <point x="1066" y="730"/>
      <point x="1205" y="563" type="curve"/>
      <point x="1209" y="561" type="line"/>
      <point x="1302" y="442"/>
      <point x="1373" y="299"/>
      <point x="1412" y="149" type="curve" smooth="yes"/>
    </contour>
    <component base="_cap.shiro_left"/>
    <component base="_cap.shiro_right" xOffset="1482"/>
  </outline>
</glyph>
<glyph name="Kha.gm" format="2">
  <advance width="1704"/>
  <unicode hex="0A16"/>
  <anchor x="1804" y="100" name="bottom"/>
  <anchor x="1530" y="100" name="bottom1"/>
  <anchor x="1604" y="1200" name="top"/>
  <outline>
    <contour>
      <point x="841" y="228" type="curve" smooth="yes"/>
      <point x="1077" y="228"/>
      <point x="1264" y="286"/>
      <point x="1378" y="347" type="curve"/>
      <point x="1402" y="391" type="line"/>
      <point x="1418" y="391" type="line"/>
      <point x="1418" y="409" type="line"/>
      <point x="1289" y="326"/>
      <point x="1078" y="263"/>
      <point x="841" y="263" type="curve" smooth="yes"/>
      <point x="535" y="263"/>
      <point x="332" y="371"/>
      <point x="237" y="460" type="curve"/>
      <point x="241" y="426" type="line"/>
      <point x="301" y="555"/>
      <point x="340" y="685"/>
      <point x="340" y="940" type="curve" smooth="yes"/>
      <point x="340" y="1006"/>
      <point x="337" y="1086"/>
      <point x="331" y="1173" type="curve"/>
      <point x="34" y="1173" type="line"/>
      <point x="34" y="1139" type="line"/>
      <point x="296" y="1139" type="line"/>
      <point x="301" y="1072"/>
      <point x="303" y="1005"/>
      <point x="303" y="943" type="curve" smooth="yes"/>
      <point x="303" y="696"/>
      <point x="269" y="574"/>
      <point x="207" y="441" type="curve"/>
      <point x="347" y="310"/>
      <point x="567" y="228"/>
    </contour>
    <contour>
      <point x="313" y="737" type="line"/>
      <point x="1419" y="737" type="line"/>
      <point x="1419" y="771" type="line"/>
      <point x="313" y="771" type="line"/>
    </contour>
    <component base="_danda" xOffset="1222"/>
    <component base="_cap.shiro_left"/>
  </outline>
</glyph>
<glyph name="Ga.gm" format="2">
  <advance width="2040"/>
  <unicode hex="0A17"/>
  <anchor x="2140" y="100" name="bottom"/>
  <anchor x="1790" y="100" name="bottom1"/>
  <anchor x="1940" y="1200" name="top"/>
  <outline>
    <contour>
      <point x="761" y="-18" type="curve" smooth="yes"/>
      <point x="1042" y="-18"/>
      <point x="1200" y="128"/>
      <point x="1200" y="348" type="curve" smooth="yes"/>
      <point x="1200" y="1157" type="line"/>
      <point x="1163" y="1157" type="line"/>
      <point x="1163" y="690" type="line"/>
      <point x="1163" y="688" type="line"/>
      <point x="1163" y="348" type="line" smooth="yes"/>
      <point x="1163" y="148"/>
      <point x="1021" y="17"/>
      <point x="761" y="17" type="curve" smooth="yes"/>
      <point x="396" y="17"/>
      <point x="205" y="199"/>
      <point x="205" y="402" type="curve" smooth="yes"/>
      <point x="205" y="411" type="line" smooth="yes"/>
      <point x="205" y="555"/>
      <point x="296" y="671"/>
      <point x="529" y="671" type="curve" smooth="yes"/>
      <point x="1177" y="671" type="line"/>
      <point x="1177" y="705" type="line"/>
      <point x="529" y="705" type="line" smooth="yes"/>
      <point x="271" y="705"/>
      <point x="166" y="577"/>
      <point x="166" y="411" type="curve" smooth="yes"/>
      <point x="166" y="402" type="line" smooth="yes"/>
      <point x="166" y="179"/>
      <point x="376" y="-18"/>
    </contour>
    <contour>
      <point x="15" y="1139" type="line"/>
      <point x="1843" y="1139" type="line"/>
      <point x="1843" y="1173" type="line"/>
      <point x="15" y="1173" type="line"/>
    </contour>
    <component base="_danda" xOffset="1558"/>
    <component base="_cap.shiro_left"/>
  </outline>
</glyph>
<glyph name="Gha.gm" format="2">
  <advance width="1952"/>
  <unicode hex="0A18"/>
  <anchor x="2052" y="100" name="bottom"/>
  <anchor x="1680" y="100" name="bottom1"/>
  <anchor x="1852" y="1200" name="top"/>
  <outline>
    <contour>
      <point x="626" y="240" type="curve" smooth="yes"/>
      <point x="790" y="240"/>
      <point x="920" y="307"/>
      <point x="972" y="362" type="curve"/>
      <point x="995" y="426" type="line"/>
      <point x="982" y="432" type="line"/>
      <point x="982" y="426" type="line"/>
      <point x="929" y="346"/>
      <point x="788" y="275"/>
      <point x="626" y="275" type="curve" smooth="yes"/>
      <point x="450" y="275"/>
      <point x="302" y="352"/>
      <point x="227" y="460" type="curve"/>
      <point x="231" y="426" type="line"/>
      <point x="291" y="555"/>
      <point x="330" y="685"/>
      <point x="330" y="940" type="curve" smooth="yes"/>
      <point x="330" y="1006"/>
      <point x="327" y="1086"/>
      <point x="321" y="1173" type="curve"/>
      <point x="25" y="1173" type="line"/>
      <point x="25" y="1139" type="line"/>
      <point x="286" y="1139" type="line"/>
      <point x="291" y="1072"/>
      <point x="293" y="1005"/>
      <point x="293" y="943" type="curve" smooth="yes"/>
      <point x="293" y="696"/>
      <point x="259" y="574"/>
      <point x="197" y="441" type="curve"/>
      <point x="289" y="317"/>
      <point x="437" y="240"/>
    </contour>
    <contour>
      <point x="1351" y="237" type="curve" smooth="yes"/>
      <point x="1514" y="237"/>
      <point x="1616" y="296"/>
      <point x="1646" y="319" type="curve"/>
      <point x="1668" y="359" type="line"/>
      <point x="1675" y="359" type="line"/>
      <point x="1668" y="370" type="line"/>
      <point x="1619" y="328"/>
      <point x="1508" y="272"/>
      <point x="1352" y="272" type="curve" smooth="yes"/>
      <point x="1162" y="272"/>
      <point x="1054" y="348"/>
      <point x="1007" y="435" type="curve"/>
      <point x="980" y="414" type="line"/>
      <point x="1024" y="329"/>
      <point x="1141" y="237"/>
    </contour>
    <contour>
      <point x="1011" y="1166" type="line"/>
      <point x="974" y="1150" type="line"/>
      <point x="974" y="920" type="line" smooth="yes"/>
      <point x="974" y="758"/>
      <point x="974" y="581"/>
      <point x="974" y="400" type="curve"/>
      <point x="1008" y="415" type="line"/>
      <point x="1008" y="646"/>
      <point x="1011" y="762"/>
      <point x="1011" y="924" type="curve" smooth="yes"/>
    </contour>
    <component base="_danda" xOffset="1470"/>
    <component base="_cap.shiro_left"/>
  </outline>
</glyph>
<glyph name="Nga.gm" format="2">
  <advance width="1678"/>
  <unicode hex="0A19"/>
  <anchor x="1600" y="100" name="bottom"/>
  <anchor x="1500" y="100" name="bottom1"/>
  <anchor x="1566" y="1200" name="top"/>
  <outline>
    <contour>
      <point x="17" y="1139" type="line"/>
      <point x="275" y="1139" type="line"/>
      <point x="277" y="1139" type="line"/>
      <point x="1653" y="1139" type="line"/>
      <point x="1653" y="1173" type="line"/>
      <point x="17" y="1173" type="line"/>
    </contour>
    <contour>
      <point x="682" y="8" type="curve" smooth="yes"/>
      <point x="987" y="8"/>
      <point x="1172" y="87"/>
      <point x="1276" y="153" type="curve"/>
      <point x="1276" y="155" type="line"/>
      <point x="1404" y="239"/>
      <point x="1477" y="368"/>
      <point x="1477" y="495" type="curve" smooth="yes"/>
      <point x="1477" y="511" type="line" smooth="yes"/>
      <point x="1477" y="708"/>
      <point x="1329" y="823"/>
      <point x="1011" y="823" type="curve" smooth="yes"/>
      <point x="295" y="823" type="line"/>
      <point x="295" y="1161" type="line"/>
      <point x="258" y="1161" type="line"/>
      <point x="258" y="789" type="line"/>
      <point x="1012" y="789" type="line" smooth="yes"/>
      <point x="1310" y="789"/>
      <point x="1438" y="685"/>
      <point x="1438" y="511" type="curve" smooth="yes"/>
      <point x="1438" y="495" type="line" smooth="yes"/>
      <point x="1438" y="385"/>
      <point x="1374" y="258"/>
      <point x="1252" y="183" type="curve"/>
      <point x="1252" y="181" type="line"/>
      <point x="1152" y="120"/>
      <point x="973" y="43"/>
      <point x="684" y="43" type="curve" smooth="yes"/>
      <point x="389" y="43"/>
      <point x="241" y="123"/>
      <point x="241" y="252" type="curve" smooth="yes"/>
      <point x="241" y="253" type="line" smooth="yes"/>
      <point x="241" y="376"/>
      <point x="358" y="450"/>
      <point x="578" y="450" type="curve" smooth="yes"/>
      <point x="862" y="450"/>
      <point x="1065" y="358"/>
      <point x="1252" y="155" type="curve"/>
      <point x="1281" y="177" type="line"/>
      <point x="1096" y="375"/>
      <point x="887" y="485"/>
      <point x="578" y="485" type="curve" smooth="yes"/>
      <point x="329" y="485"/>
      <point x="202" y="391"/>
      <point x="202" y="254" type="curve" smooth="yes"/>
      <point x="202" y="250" type="line" smooth="yes"/>
      <point x="202" y="108"/>
      <point x="359" y="8"/>
    </contour>
    <contour>
      <point x="1452" y="-87" type="line"/>
      <point x="1499" y="-87" type="line"/>
      <point x="1282" y="172" type="line"/>
      <point x="1250" y="154" type="line"/>
    </contour>
    <component base="_cap.shiro_left"/>
    <component base="_cap.shiro_right" xOffset="1477"/>
  </outline>
</glyph>
<glyph name="Ca.gm" format="2">
  <advance width="1752"/>
  <unicode hex="0A1A"/>
  <anchor x="1657" y="100" name="bottom"/>
  <anchor x="1608" y="100" name="bottom1"/>
  <anchor x="1652" y="1200" name="top"/>
  <outline>
    <contour>
      <point x="923" y="-17" type="curve" smooth="yes"/>
      <point x="1292" y="-17"/>
      <point x="1485" y="149"/>
      <point x="1485" y="468" type="curve" smooth="yes"/>
      <point x="1485" y="1148" type="line"/>
      <point x="1448" y="1148" type="line"/>
      <point x="1448" y="660" type="line"/>
      <point x="1448" y="658" type="line"/>
      <point x="1448" y="470" type="line" smooth="yes"/>
      <point x="1448" y="173"/>
      <point x="1268" y="18"/>
      <point x="923" y="18" type="curve" smooth="yes"/>
      <point x="504" y="18"/>
      <point x="257" y="256"/>
      <point x="257" y="659" type="curve" smooth="yes"/>
      <point x="257" y="958" type="line"/>
      <point x="220" y="938" type="line"/>
      <point x="220" y="658" type="line" smooth="yes"/>
      <point x="220" y="234"/>
      <point x="483" y="-17"/>
    </contour>
    <contour>
      <point x="238" y="641" type="line"/>
      <point x="1471" y="641" type="line"/>
      <point x="1471" y="675" type="line"/>
      <point x="238" y="675" type="line"/>
    </contour>
    <contour>
      <point x="17" y="1139" type="line"/>
      <point x="1752" y="1139" type="line"/>
      <point x="1752" y="1173" type="line"/>
      <point x="17" y="1173" type="line"/>
    </contour>
    <component base="_cap.shiro_left"/>
    <component base="_cap.shiro_right" xOffset="1551"/>
  </outline>
</glyph>
<glyph name="Cha.gm" format="2">
  <advance width="1747"/>
  <unicode hex="0A1B"/>
  <anchor x="1580" y="100" name="bottom"/>
  <anchor x="1560" y="100" name="bottom1"/>
  <anchor x="1627" y="1200" name="top"/>
  <outline>
    <contour>
      <point x="898" y="0" type="line"/>
      <point x="1239" y="0" type="line" smooth="yes"/>
      <point x="1438" y="0"/>
      <point x="1561" y="96"/>
      <point x="1561" y="244" type="curve" smooth="yes"/>
      <point x="1561" y="246" type="line" smooth="yes"/>
      <point x="1561" y="397"/>
      <point x="1470" y="488"/>
      <point x="1239" y="488" type="curve" smooth="yes"/>
      <point x="541" y="488" type="line" smooth="yes"/>
      <point x="405" y="488"/>
      <point x="256" y="525"/>
      <point x="256" y="676" type="curve" smooth="yes"/>
      <point x="256" y="789"/>
      <point x="341" y="854"/>
      <point x="500" y="854" type="curve" smooth="yes"/>
      <point x="1460" y="854" type="line"/>
      <point x="1460" y="1161" type="line"/>
      <point x="1423" y="1161" type="line"/>
      <point x="1423" y="888" type="line"/>
      <point x="499" y="888" type="line" smooth="yes"/>
      <point x="322" y="888"/>
      <point x="217" y="810"/>
      <point x="217" y="676" type="curve" smooth="yes"/>
      <point x="217" y="538"/>
      <point x="340" y="478"/>
      <point x="432" y="473" type="curve"/>
      <point x="432" y="468" type="line"/>
      <point x="541" y="454" type="line"/>
      <point x="1239" y="454" type="line" smooth="yes"/>
      <point x="1447" y="454"/>
      <point x="1522" y="370"/>
      <point x="1522" y="246" type="curve" smooth="yes"/>
      <point x="1522" y="244" type="line" smooth="yes"/>
      <point x="1522" y="116"/>
      <point x="1412" y="34"/>
      <point x="1239" y="34" type="curve" smooth="yes"/>
      <point x="898" y="34" type="line"/>
    </contour>
    <contour>
      <point x="565" y="0" type="curve"/>
      <point x="901" y="0" type="line"/>
      <point x="901" y="34" type="line"/>
      <point x="561" y="34" type="line" smooth="yes"/>
      <point x="374" y="34"/>
      <point x="250" y="103"/>
      <point x="250" y="244" type="curve" smooth="yes"/>
      <point x="250" y="246" type="line" smooth="yes"/>
      <point x="250" y="376"/>
      <point x="359" y="454"/>
      <point x="541" y="454" type="curve" smooth="yes"/>
      <point x="591" y="454" type="line"/>
      <point x="591" y="478" type="line"/>
      <point x="542" y="478" type="line"/>
      <point x="334" y="478"/>
      <point x="211" y="404"/>
      <point x="211" y="246" type="curve" smooth="yes"/>
      <point x="211" y="244" type="line" smooth="yes"/>
      <point x="211" y="82"/>
      <point x="350" y="0"/>
    </contour>
    <contour>
      <point x="878" y="15" type="line"/>
      <point x="915" y="15" type="line"/>
      <point x="915" y="471" type="line"/>
      <point x="878" y="471" type="line"/>
    </contour>
    <contour>
      <point x="43" y="1139" type="line"/>
      <point x="1441" y="1139" type="line"/>
      <point x="1443" y="1139" type="line"/>
      <point x="1727" y="1139" type="line"/>
      <point x="1727" y="1173" type="line"/>
      <point x="43" y="1173" type="line"/>
    </contour>
    <component base="_cap.shiro_left"/>
    <component base="_cap.shiro_right" xOffset="1546"/>
  </outline>
</glyph>
<glyph name="Ja.gm" format="2">
  <advance width="1671"/>
  <unicode hex="0A1C"/>
  <anchor x="1771" y="100" name="bottom"/>
  <anchor x="1501" y="100" name="bottom1"/>
  <anchor x="1571" y="1200" name="top"/>
  <outline>
    <contour>
      <point x="248" y="0" type="curve"/>
      <point x="285" y="0" type="line"/>
      <point x="309" y="171"/>
      <point x="321" y="362"/>
      <point x="321" y="542" type="curve" smooth="yes"/>
      <point x="321" y="682"/>
      <point x="311" y="829"/>
      <point x="295" y="938" type="curve"/>
      <point x="260" y="918" type="line"/>
      <point x="274" y="818"/>
      <point x="284" y="679"/>
      <point x="284" y="544" type="curve" smooth="yes"/>
      <point x="284" y="364"/>
      <point x="272" y="172"/>
    </contour>
    <contour>
      <point x="299" y="620" type="line"/>
      <point x="1387" y="620" type="line"/>
      <point x="1387" y="654" type="line"/>
      <point x="299" y="654" type="line"/>
    </contour>
    <contour>
      <point x="39" y="1139" type="line"/>
      <point x="1476" y="1139" type="line"/>
      <point x="1473" y="1173" type="line"/>
      <point x="39" y="1173" type="line"/>
    </contour>
    <component base="_danda" xOffset="1189"/>
    <component base="_cap.shiro_left"/>
  </outline>
</glyph>
<glyph name="Jha.gm" format="2">
  <advance width="1646"/>
  <unicode hex="0A1D"/>
  <anchor x="1323" y="-10" name="bottom"/>
  <anchor x="1500" y="50" name="bottom1"/>
  <anchor x="1631" y="1200" name="top"/>
  <outline>
    <contour>
      <point x="839" y="32" type="curve" smooth="yes"/>
      <point x="1273" y="32"/>
      <point x="1458" y="133"/>
      <point x="1458" y="360" type="curve" smooth="yes"/>
      <point x="1458" y="363" type="line" smooth="yes"/>
      <point x="1458" y="540"/>
      <point x="1323" y="652"/>
      <point x="1022" y="681" type="curve"/>
      <point x="1022" y="697" type="line"/>
      <point x="827" y="697" type="line"/>
      <point x="599" y="695" type="line"/>
      <point x="599" y="684" type="line"/>
      <point x="453" y="681"/>
      <point x="306" y="647"/>
      <point x="214" y="623" type="curve"/>
      <point x="203" y="584" type="line"/>
      <point x="362" y="629"/>
      <point x="552" y="663"/>
      <point x="827" y="663" type="curve" smooth="yes"/>
      <point x="1291" y="663"/>
      <point x="1419" y="527"/>
      <point x="1419" y="363" type="curve" smooth="yes"/>
      <point x="1419" y="362" type="line" smooth="yes"/>
      <point x="1419" y="157"/>
      <point x="1248" y="67"/>
      <point x="839" y="67" type="curve" smooth="yes"/>
      <point x="624" y="67"/>
      <point x="411" y="106"/>
      <point x="217" y="184" type="curve"/>
      <point x="227" y="139" type="line"/>
      <point x="407" y="69"/>
      <point x="617" y="32"/>
    </contour>
    <contour>
      <point x="912" y="-228" type="line"/>
      <point x="975" y="-228" type="line"/>
      <point x="778" y="-99"/>
      <point x="579" y="13"/>
      <point x="473" y="68" type="curve"/>
      <point x="474" y="91" type="line"/>
      <point x="344" y="110" type="line"/>
    </contour>
    <contour>
      <point x="718" y="676" type="curve"/>
      <point x="786" y="696" type="line"/>
      <point x="467" y="696"/>
      <point x="203" y="879"/>
      <point x="203" y="1146" type="curve" smooth="yes"/>
      <point x="203" y="1162" type="line"/>
      <point x="165" y="1162" type="line"/>
      <point x="165" y="1143" type="line" smooth="yes"/>
      <point x="165" y="876"/>
      <point x="421" y="679"/>
    </contour>
    <contour>
      <point x="1" y="1139" type="line"/>
      <point x="182" y="1139" type="line"/>
      <point x="183" y="1139" type="line"/>
      <point x="1448" y="1139" type="line"/>
      <point x="1449" y="1139" type="line"/>
      <point x="1626" y="1139" type="line"/>
      <point x="1626" y="1173" type="line"/>
      <point x="1" y="1173" type="line"/>
    </contour>
    <contour>
      <point x="1464" y="1143" type="curve" smooth="yes"/>
      <point x="1464" y="1162" type="line"/>
      <point x="1427" y="1162" type="line"/>
      <point x="1427" y="1146" type="line" smooth="yes"/>
      <point x="1427" y="859"/>
      <point x="1172" y="697"/>
      <point x="843" y="697" type="curve"/>
      <point x="911" y="676" type="line"/>
      <point x="1215" y="676"/>
      <point x="1464" y="856"/>
    </contour>
    <component base="_cap.shiro_left"/>
    <component base="_cap.shiro_right" xOffset="1445"/>
  </outline>
</glyph>
<glyph name="Nya.gm" format="2">
  <advance width="1629"/>
  <unicode hex="0A1E"/>
  <anchor x="1534" y="70" name="bottom"/>
  <anchor x="1610" y="100" name="bottom1"/>
  <anchor x="1561" y="1200" name="top"/>
  <outline>
    <contour>
      <point x="450" y="410" type="curve"/>
      <point x="1359" y="410" type="line"/>
      <point x="1359" y="444" type="line"/>
      <point x="450" y="444" type="line" smooth="yes"/>
      <point x="289" y="444"/>
      <point x="202" y="507"/>
      <point x="202" y="627" type="curve" smooth="yes"/>
      <point x="202" y="745"/>
      <point x="287" y="806"/>
      <point x="450" y="806" type="curve" smooth="yes"/>
      <point x="1394" y="806" type="line"/>
      <point x="1394" y="1155" type="line"/>
      <point x="1357" y="1155" type="line"/>
      <point x="1357" y="840" type="line"/>
      <point x="450" y="840" type="line" smooth="yes"/>
      <point x="263" y="840"/>
      <point x="163" y="765"/>
      <point x="163" y="627" type="curve" smooth="yes"/>
      <point x="163" y="486"/>
      <point x="263" y="410"/>
    </contour>
    <contour>
      <point x="1199" y="-8" type="curve" smooth="yes"/>
      <point x="1268" y="-8"/>
      <point x="1366" y="3"/>
      <point x="1433" y="23" type="curve"/>
      <point x="1444" y="59" type="line"/>
      <point x="1366" y="38"/>
      <point x="1262" y="27"/>
      <point x="1198" y="27" type="curve" smooth="yes"/>
      <point x="921" y="27"/>
      <point x="660" y="108"/>
      <point x="586" y="427" type="curve"/>
      <point x="542" y="427" type="line"/>
      <point x="636" y="74"/>
      <point x="907" y="-8"/>
    </contour>
    <contour>
      <point x="485" y="814" type="curve"/>
      <point x="523" y="823" type="line"/>
      <point x="427" y="890"/>
      <point x="318" y="1026"/>
      <point x="262" y="1153" type="curve"/>
      <point x="219" y="1153" type="line"/>
      <point x="278" y="1023"/>
      <point x="386" y="884"/>
    </contour>
    <contour>
      <point x="21" y="1139" type="line"/>
      <point x="243" y="1139" type="line"/>
      <point x="248" y="1139" type="line"/>
      <point x="1368" y="1139" type="line"/>
      <point x="1377" y="1139" type="line"/>
      <point x="1609" y="1139" type="line"/>
      <point x="1609" y="1173" type="line"/>
      <point x="21" y="1173" type="line"/>
    </contour>
    <component base="_cap.shiro_left"/>
    <component base="_cap.shiro_right" xOffset="1428"/>
  </outline>
</glyph>
<glyph name="Tta.gm" format="2">
  <advance width="1574"/>
  <unicode hex="0A1F"/>
  <anchor x="1558" y="100" name="bottom"/>
  <anchor x="1570" y="100" name="bottom1"/>
  <anchor x="1493" y="1200" name="top"/>
  <outline>
    <contour>
      <point x="920" y="-6" type="curve" smooth="yes"/>
      <point x="1101" y="-6"/>
      <point x="1257" y="28"/>
      <point x="1397" y="87" type="curve"/>
      <point x="1408" y="131" type="line"/>
      <point x="1263" y="64"/>
      <point x="1103" y="29"/>
      <point x="920" y="29" type="curve" smooth="yes"/>
      <point x="495" y="29"/>
      <point x="225" y="217"/>
      <point x="225" y="511" type="curve" smooth="yes"/>
      <point x="225" y="560" type="line"/>
      <point x="196" y="535" type="line"/>
      <point x="518" y="687"/>
      <point x="932" y="708"/>
      <point x="1326" y="708" type="curve"/>
      <point x="1326" y="1156" type="line"/>
      <point x="1289" y="1156" type="line"/>
      <point x="1289" y="724" type="line"/>
      <point x="1321" y="742" type="line"/>
      <point x="925" y="742"/>
      <point x="511" y="722"/>
      <point x="188" y="570" type="curve"/>
      <point x="188" y="511" type="line" smooth="yes"/>
      <point x="188" y="196"/>
      <point x="473" y="-6"/>
    </contour>
    <contour>
      <point x="5" y="1139" type="line"/>
      <point x="1564" y="1139" type="line"/>
      <point x="1564" y="1173" type="line"/>
      <point x="5" y="1173" type="line"/>
    </contour>
    <component base="_cap.shiro_left"/>
    <component base="_cap.shiro_right" xOffset="1383"/>
  </outline>
</glyph>
<glyph name="Ttha.gm" format="2">
  <advance width="1680"/>
  <unicode hex="0A20"/>
  <anchor x="1584" y="100" name="bottom"/>
  <anchor x="1502" y="100" name="bottom1"/>
  <anchor x="1030" y="1200" name="top"/>
  <outline>
    <contour>
      <point x="842" y="-27" type="curve" smooth="yes"/>
      <point x="1272" y="-27"/>
      <point x="1516" y="123"/>
      <point x="1516" y="387" type="curve" smooth="yes"/>
      <point x="1516" y="392" type="line" smooth="yes"/>
      <point x="1516" y="631"/>
      <point x="1288" y="785"/>
      <point x="842" y="830" type="curve"/>
      <point x="397" y="785"/>
      <point x="169" y="632"/>
      <point x="169" y="392" type="curve" smooth="yes"/>
      <point x="169" y="387" type="line" smooth="yes"/>
      <point x="169" y="123"/>
      <point x="412" y="-27"/>
    </contour>
    <contour>
      <point x="842" y="8" type="curve" smooth="yes"/>
      <point x="437" y="8"/>
      <point x="208" y="143"/>
      <point x="208" y="389" type="curve" smooth="yes"/>
      <point x="208" y="390" type="line" smooth="yes"/>
      <point x="208" y="611"/>
      <point x="422" y="750"/>
      <point x="842" y="794" type="curve"/>
      <point x="1263" y="750"/>
      <point x="1477" y="611"/>
      <point x="1477" y="390" type="curve" smooth="yes"/>
      <point x="1477" y="389" type="line" smooth="yes"/>
      <point x="1477" y="143"/>
      <point x="1247" y="8"/>
    </contour>
    <contour>
      <point x="826" y="808" type="line"/>
      <point x="863" y="808" type="line"/>
      <point x="863" y="1155" type="line"/>
      <point x="826" y="1155" type="line"/>
    </contour>
    <contour>
      <point x="20" y="1139" type="line"/>
      <point x="1655" y="1139" type="line"/>
      <point x="1655" y="1173" type="line"/>
      <point x="20" y="1173" type="line"/>
    </contour>
    <component base="_cap.shiro_left"/>
    <component base="_cap.shiro_right" xOffset="1479"/>
  </outline>
</glyph>
<glyph name="Dda.gm" format="2">
  <advance width="1571"/>
  <unicode hex="0A21"/>
  <anchor x="1431" y="100" name="bottom"/>
  <anchor x="1420" y="100" name="bottom1"/>
  <anchor x="1551" y="1200" name="top"/>
  <outline>
    <contour>
      <point x="676" y="-18" type="curve" smooth="yes"/>
      <point x="1150" y="-18"/>
      <point x="1397" y="112"/>
      <point x="1397" y="361" type="curve" smooth="yes"/>
      <point x="1397" y="365" type="line" smooth="yes"/>
      <point x="1397" y="563"/>
      <point x="1242" y="711"/>
      <point x="996" y="714" type="curve"/>
      <point x="1037" y="696" type="line"/>
      <point x="1037" y="710" type="line"/>
      <point x="1231" y="724"/>
      <point x="1384" y="845"/>
      <point x="1384" y="1110" type="curve" smooth="yes"/>
      <point x="1384" y="1154" type="line"/>
      <point x="1345" y="1154" type="line"/>
      <point x="1345" y="1110" type="line" smooth="yes"/>
      <point x="1345" y="884"/>
      <point x="1228" y="729"/>
      <point x="940" y="729" type="curve"/>
      <point x="280" y="729" type="line"/>
      <point x="280" y="695" type="line"/>
      <point x="940" y="695" type="line"/>
      <point x="1212" y="695"/>
      <point x="1358" y="541"/>
      <point x="1358" y="366" type="curve"/>
      <point x="1358" y="363" type="line"/>
      <point x="1358" y="136"/>
      <point x="1124" y="17"/>
      <point x="676" y="17" type="curve" smooth="yes"/>
      <point x="357" y="17"/>
      <point x="169" y="83"/>
      <point x="169" y="205" type="curve" smooth="yes"/>
      <point x="169" y="206" type="line" smooth="yes"/>
      <point x="169" y="322"/>
      <point x="294" y="383"/>
      <point x="558" y="383" type="curve" smooth="yes"/>
      <point x="874" y="383"/>
      <point x="1130" y="275"/>
      <point x="1222" y="93" type="curve"/>
      <point x="1249" y="104" type="line"/>
      <point x="1164" y="299"/>
      <point x="891" y="418"/>
      <point x="558" y="418" type="curve" smooth="yes"/>
      <point x="269" y="418"/>
      <point x="130" y="344"/>
      <point x="130" y="207" type="curve" smooth="yes"/>
      <point x="130" y="204" type="line" smooth="yes"/>
      <point x="130" y="60"/>
      <point x="331" y="-18"/>
    </contour>
    <contour>
      <point x="15" y="1139" type="line"/>
      <point x="1366" y="1139" type="line"/>
      <point x="1368" y="1139" type="line"/>
      <point x="1571" y="1139" type="line"/>
      <point x="1571" y="1173" type="line"/>
      <point x="15" y="1173" type="line"/>
    </contour>
    <component base="_cap.shiro_left"/>
    <component base="_cap.shiro_right" xOffset="1380"/>
  </outline>
</glyph>
<glyph name="Ddha.gm" format="2">
  <advance width="1700"/>
  <unicode hex="0A22"/>
  <anchor x="1628" y="78" name="bottom"/>
  <anchor x="1642" y="100" name="bottom1"/>
  <anchor x="1597" y="1200" name="top"/>
  <outline>
    <contour>
      <point x="1050" y="-18" type="curve" smooth="yes"/>
      <point x="1346" y="-18"/>
      <point x="1501" y="56"/>
      <point x="1501" y="199" type="curve" smooth="yes"/>
      <point x="1501" y="201" type="line" smooth="yes"/>
      <point x="1501" y="350"/>
      <point x="1377" y="418"/>
      <point x="1107" y="418" type="curve" smooth="yes"/>
      <point x="818" y="418"/>
      <point x="600" y="317"/>
      <point x="492" y="130" type="curve"/>
      <point x="519" y="114" type="line"/>
      <point x="626" y="289"/>
      <point x="833" y="383"/>
      <point x="1109" y="383" type="curve" smooth="yes"/>
      <point x="1351" y="383"/>
      <point x="1462" y="326"/>
      <point x="1462" y="201" type="curve" smooth="yes"/>
      <point x="1462" y="200" type="line" smooth="yes"/>
      <point x="1462" y="80"/>
      <point x="1321" y="17"/>
      <point x="1050" y="17" type="curve" smooth="yes"/>
      <point x="518" y="17"/>
      <point x="257" y="276"/>
      <point x="257" y="716" type="curve" smooth="yes"/>
      <point x="257" y="1013" type="line"/>
      <point x="220" y="993" type="line"/>
      <point x="220" y="729" type="line" smooth="yes"/>
      <point x="220" y="238"/>
      <point x="507" y="-18"/>
    </contour>
    <contour>
      <point x="238" y="698" type="line"/>
      <point x="1430" y="698" type="line"/>
      <point x="1430" y="1155" type="line"/>
      <point x="1393" y="1155" type="line"/>
      <point x="1393" y="732" type="line"/>
      <point x="238" y="732" type="line"/>
    </contour>
    <contour>
      <point x="37" y="1139" type="line"/>
      <point x="1707" y="1139" type="line"/>
      <point x="1707" y="1173" type="line"/>
      <point x="37" y="1173" type="line"/>
    </contour>
    <component base="_cap.shiro_left"/>
    <component base="_cap.shiro_right" xOffset="1499"/>
  </outline>
</glyph>
<glyph name="Nna.gm" format="2">
  <advance width="1615"/>
  <unicode hex="0A23"/>
  <anchor x="1612" y="100" name="bottom"/>
  <anchor x="1570" y="100" name="bottom1"/>
  <anchor x="1568" y="1200" name="top"/>
  <outline>
    <contour>
      <point x="887" y="-18" type="curve" smooth="yes"/>
      <point x="1098" y="-18"/>
      <point x="1294" y="19"/>
      <point x="1465" y="89" type="curve"/>
      <point x="1475" y="134" type="line"/>
      <point x="1290" y="56"/>
      <point x="1092" y="17"/>
      <point x="887" y="17" type="curve" smooth="yes"/>
      <point x="464" y="17"/>
      <point x="202" y="163"/>
      <point x="202" y="389" type="curve"/>
      <point x="202" y="417" type="line"/>
      <point x="184" y="387" type="line"/>
      <point x="452" y="441"/>
      <point x="678" y="462"/>
      <point x="974" y="462" type="curve"/>
      <point x="974" y="725" type="line"/>
      <point x="937" y="727" type="line"/>
      <point x="937" y="496" type="line"/>
      <point x="664" y="496"/>
      <point x="444" y="474"/>
      <point x="165" y="418" type="curve"/>
      <point x="165" y="384" type="line"/>
      <point x="165" y="144"/>
      <point x="441" y="-18"/>
    </contour>
    <contour>
      <point x="1242" y="696" type="curve" smooth="yes"/>
      <point x="1439" y="696" type="line"/>
      <point x="1439" y="730" type="line"/>
      <point x="1242" y="730" type="line" smooth="yes"/>
      <point x="589" y="730"/>
      <point x="338" y="907"/>
      <point x="338" y="1156" type="curve" smooth="yes"/>
      <point x="338" y="1159" type="line"/>
      <point x="299" y="1159" type="line"/>
      <point x="299" y="1157" type="line" smooth="yes"/>
      <point x="299" y="883"/>
      <point x="572" y="696"/>
    </contour>
    <contour>
      <point x="3" y="1139" type="line"/>
      <point x="1615" y="1139" type="line"/>
      <point x="1615" y="1173" type="line"/>
      <point x="3" y="1173" type="line"/>
    </contour>
    <component base="_cap.shiro_left"/>
    <component base="_cap.shiro_right" xOffset="1414"/>
  </outline>
</glyph>
<glyph name="Ta.gm" format="2">
  <advance width="1518"/>
  <unicode hex="0A24"/>
  <anchor x="1365" y="100" name="bottom"/>
  <anchor x="1370" y="100" name="bottom1"/>
  <anchor x="1496" y="1200" name="top"/>
  <outline>
    <contour>
      <point x="21" y="1139" type="line"/>
      <point x="1518" y="1139" type="line"/>
      <point x="1518" y="1173" type="line"/>
      <point x="21" y="1173" type="line"/>
    </contour>
    <contour>
      <point x="740" y="-18" type="curve" smooth="yes"/>
      <point x="1118" y="-18"/>
      <point x="1331" y="102"/>
      <point x="1331" y="331" type="curve" smooth="yes"/>
      <point x="1331" y="333" type="line" smooth="yes"/>
      <point x="1331" y="523"/>
      <point x="1180" y="657"/>
      <point x="921" y="666" type="curve"/>
      <point x="959" y="645" type="line"/>
      <point x="959" y="659" type="line"/>
      <point x="1164" y="673"/>
      <point x="1329" y="813"/>
      <point x="1329" y="1095" type="curve" smooth="yes"/>
      <point x="1329" y="1154" type="line"/>
      <point x="1290" y="1154" type="line"/>
      <point x="1290" y="1095" type="line" smooth="yes"/>
      <point x="1290" y="851"/>
      <point x="1167" y="678"/>
      <point x="865" y="678" type="curve" smooth="yes"/>
      <point x="249" y="678" type="line"/>
      <point x="249" y="644" type="line"/>
      <point x="865" y="644" type="line" smooth="yes"/>
      <point x="1150" y="644"/>
      <point x="1292" y="502"/>
      <point x="1292" y="333" type="curve" smooth="yes"/>
      <point x="1292" y="331" type="line" smooth="yes"/>
      <point x="1292" y="125"/>
      <point x="1093" y="17"/>
      <point x="740" y="17" type="curve" smooth="yes"/>
      <point x="525" y="17"/>
      <point x="312" y="56"/>
      <point x="118" y="134" type="curve"/>
      <point x="128" y="89" type="line"/>
      <point x="308" y="19"/>
      <point x="518" y="-18"/>
    </contour>
    <component base="_cap.shiro_left"/>
    <component base="_cap.shiro_right" xOffset="1327"/>
  </outline>
</glyph>
<glyph name="Tha.gm" format="2">
  <advance width="1726"/>
  <unicode hex="0A25"/>
  <anchor x="1826" y="100" name="bottom"/>
  <anchor x="1520" y="100" name="bottom1"/>
  <anchor x="1626" y="1200" name="top"/>
  <outline>
    <contour>
      <point x="309" y="719" type="line"/>
      <point x="1439" y="719" type="line"/>
      <point x="1439" y="753" type="line"/>
      <point x="309" y="753" type="line"/>
    </contour>
    <contour>
      <point x="243" y="1139" type="line"/>
      <point x="311" y="1139" type="line"/>
      <point x="314" y="1139" type="line"/>
      <point x="1439" y="1139" type="line"/>
      <point x="1443" y="1139" type="line"/>
      <point x="1458" y="1139" type="line"/>
      <point x="1458" y="1173" type="line"/>
      <point x="243" y="1173" type="line"/>
    </contour>
    <contour>
      <point x="841" y="228" type="curve" smooth="yes"/>
      <point x="1086" y="228"/>
      <point x="1281" y="288"/>
      <point x="1399" y="352" type="curve"/>
      <point x="1423" y="396" type="line"/>
      <point x="1439" y="396" type="line"/>
      <point x="1439" y="414" type="line"/>
      <point x="1305" y="328"/>
      <point x="1087" y="263"/>
      <point x="841" y="263" type="curve" smooth="yes"/>
      <point x="535" y="263"/>
      <point x="332" y="371"/>
      <point x="237" y="460" type="curve"/>
      <point x="241" y="426" type="line"/>
      <point x="301" y="555"/>
      <point x="340" y="685"/>
      <point x="340" y="940" type="curve" smooth="yes"/>
      <point x="340" y="1006"/>
      <point x="337" y="1086"/>
      <point x="331" y="1173" type="curve"/>
      <point x="34" y="1173" type="line"/>
      <point x="34" y="1139" type="line"/>
      <point x="296" y="1139" type="line"/>
      <point x="301" y="1072"/>
      <point x="303" y="1005"/>
      <point x="303" y="943" type="curve" smooth="yes"/>
      <point x="303" y="696"/>
      <point x="269" y="574"/>
      <point x="207" y="441" type="curve"/>
      <point x="347" y="310"/>
      <point x="567" y="228"/>
    </contour>
    <component base="_danda" xOffset="1244"/>
    <component base="_cap.shiro_left"/>
  </outline>
</glyph>
<glyph name="Da.gm" format="2">
  <advance width="1630"/>
  <unicode hex="0A26"/>
  <anchor x="1520" y="80" name="bottom"/>
  <anchor x="1590" y="100" name="bottom1"/>
  <anchor x="1576" y="1200" name="top"/>
  <outline>
    <contour>
      <point x="971" y="-18" type="curve" smooth="yes"/>
      <point x="1156" y="-18"/>
      <point x="1333" y="24"/>
      <point x="1456" y="105" type="curve"/>
      <point x="1466" y="150" type="line"/>
      <point x="1336" y="63"/>
      <point x="1156" y="17"/>
      <point x="971" y="17" type="curve" smooth="yes"/>
      <point x="501" y="17"/>
      <point x="257" y="232"/>
      <point x="257" y="646" type="curve"/>
      <point x="257" y="647" type="line"/>
      <point x="257" y="648" type="line"/>
      <point x="257" y="937" type="line"/>
      <point x="220" y="917" type="line"/>
      <point x="220" y="649" type="line" smooth="yes"/>
      <point x="220" y="210"/>
      <point x="479" y="-18"/>
    </contour>
    <contour>
      <point x="239" y="620" type="line"/>
      <point x="1409" y="620" type="line"/>
      <point x="1409" y="1157" type="line"/>
      <point x="1372" y="1157" type="line"/>
      <point x="1372" y="654" type="line"/>
      <point x="239" y="654" type="line"/>
    </contour>
    <contour>
      <point x="21" y="1139" type="line"/>
      <point x="1620" y="1139" type="line"/>
      <point x="1620" y="1173" type="line"/>
      <point x="21" y="1173" type="line"/>
    </contour>
    <component base="_cap.shiro_left"/>
    <component base="_cap.shiro_right" xOffset="1429"/>
  </outline>
</glyph>
<glyph name="Pa.gm" format="2">
  <advance width="1669"/>
  <unicode hex="0A2A"/>
  <anchor x="1769" y="100" name="bottom"/>
  <anchor x="1502" y="100" name="bottom1"/>
  <anchor x="1569" y="1200" name="top"/>
  <outline>
    <contour>
      <point x="841" y="228" type="curve" smooth="yes"/>
      <point x="1061" y="228"/>
      <point x="1235" y="286"/>
      <point x="1341" y="347" type="curve"/>
      <point x="1365" y="391" type="line"/>
      <point x="1381" y="391" type="line"/>
      <point x="1381" y="409" type="line"/>
      <point x="1257" y="326"/>
      <point x="1063" y="263"/>
      <point x="841" y="263" type="curve" smooth="yes"/>
      <point x="535" y="263"/>
      <point x="332" y="371"/>
      <point x="237" y="460" type="curve"/>
      <point x="241" y="426" type="line"/>
      <point x="301" y="555"/>
      <point x="340" y="685"/>
      <point x="340" y="940" type="curve" smooth="yes"/>
      <point x="340" y="1006"/>
      <point x="337" y="1086"/>
      <point x="331" y="1173" type="curve"/>
      <point x="34" y="1173" type="line"/>
      <point x="34" y="1139" type="line"/>
      <point x="296" y="1139" type="line"/>
      <point x="301" y="1072"/>
      <point x="303" y="1005"/>
      <point x="303" y="943" type="curve" smooth="yes"/>
      <point x="303" y="696"/>
      <point x="269" y="574"/>
      <point x="207" y="441" type="curve"/>
      <point x="347" y="310"/>
      <point x="567" y="228"/>
    </contour>
    <component base="_danda" xOffset="1187"/>
    <component base="_cap.shiro_left"/>
  </outline>
</glyph>
<glyph name="Pha.gm" format="2">
  <advance width="1580"/>
  <unicode hex="0A2B"/>
  <anchor x="1530" y="75" name="bottom"/>
  <anchor x="1581" y="100" name="bottom1"/>
  <anchor x="1504" y="1200" name="top"/>
  <outline>
    <contour>
      <point x="957" y="-18" type="curve" smooth="yes"/>
      <point x="1292" y="-18"/>
      <point x="1445" y="57"/>
      <point x="1445" y="222" type="curve" smooth="yes"/>
      <point x="1445" y="226" type="line" smooth="yes"/>
      <point x="1445" y="378"/>
      <point x="1307" y="458"/>
      <point x="1043" y="458" type="curve" smooth="yes"/>
      <point x="713" y="458"/>
      <point x="506" y="319"/>
      <point x="431" y="117" type="curve"/>
      <point x="458" y="99" type="line"/>
      <point x="538" y="312"/>
      <point x="750" y="423"/>
      <point x="1044" y="423" type="curve" smooth="yes"/>
      <point x="1282" y="423"/>
      <point x="1406" y="355"/>
      <point x="1406" y="225" type="curve" smooth="yes"/>
      <point x="1406" y="223" type="line" smooth="yes"/>
      <point x="1406" y="82"/>
      <point x="1265" y="17"/>
      <point x="957" y="17" type="curve" smooth="yes"/>
      <point x="538" y="17"/>
      <point x="205" y="195"/>
      <point x="205" y="470" type="curve" smooth="yes"/>
      <point x="205" y="473" type="line" smooth="yes"/>
      <point x="205" y="685"/>
      <point x="372" y="797"/>
      <point x="694" y="797" type="curve" smooth="yes"/>
      <point x="1337" y="797" type="line"/>
      <point x="1337" y="1155" type="line"/>
      <point x="1300" y="1155" type="line"/>
      <point x="1300" y="831" type="line"/>
      <point x="688" y="831" type="line" smooth="yes"/>
      <point x="352" y="831"/>
      <point x="166" y="703"/>
      <point x="166" y="472" type="curve" smooth="yes"/>
      <point x="166" y="468" type="line" smooth="yes"/>
      <point x="166" y="176"/>
      <point x="507" y="-18"/>
    </contour>
    <contour>
      <point x="21" y="1139" type="line"/>
      <point x="1318" y="1139" type="line"/>
      <point x="1320" y="1139" type="line"/>
      <point x="1595" y="1139" type="line"/>
      <point x="1595" y="1173" type="line"/>
      <point x="21" y="1173" type="line"/>
    </contour>
    <component base="_cap.shiro_left"/>
    <component base="_cap.shiro_right" xOffset="1399"/>
  </outline>
</glyph>
<glyph name="Ba.gm" format="2">
  <advance width="1716"/>
  <unicode hex="0A2C"/>
  <anchor x="1816" y="100" name="bottom"/>
  <anchor x="1600" y="100" name="bottom1"/>
  <anchor x="1616" y="1200" name="top"/>
  <outline>
    <contour>
      <point x="853" y="185" type="curve" smooth="yes"/>
      <point x="1089" y="185"/>
      <point x="1276" y="243"/>
      <point x="1390" y="304" type="curve"/>
      <point x="1414" y="348" type="line"/>
      <point x="1430" y="348" type="line"/>
      <point x="1430" y="366" type="line"/>
      <point x="1301" y="283"/>
      <point x="1090" y="220"/>
      <point x="853" y="220" type="curve" smooth="yes"/>
      <point x="446" y="220"/>
      <point x="212" y="393"/>
      <point x="212" y="609" type="curve"/>
      <point x="212" y="620" type="line"/>
      <point x="193" y="597" type="line"/>
      <point x="605" y="692"/>
      <point x="1018" y="714"/>
      <point x="1432" y="739" type="curve"/>
      <point x="1432" y="773" type="line"/>
      <point x="1185" y="758"/>
      <point x="935" y="745"/>
      <point x="689" y="717" type="curve"/>
      <point x="676" y="715" type="line" smooth="yes"/>
      <point x="504" y="689"/>
      <point x="334" y="666"/>
      <point x="173" y="627" type="curve"/>
      <point x="173" y="609" type="line"/>
      <point x="173" y="363"/>
      <point x="429" y="185"/>
    </contour>
    <contour>
      <point x="800" y="705" type="curve"/>
      <point x="836" y="728" type="line"/>
      <point x="469" y="734"/>
      <point x="245" y="929"/>
      <point x="245" y="1130" type="curve" smooth="yes"/>
      <point x="245" y="1156" type="line"/>
      <point x="206" y="1156" type="line"/>
      <point x="206" y="1131" type="line" smooth="yes"/>
      <point x="206" y="912"/>
      <point x="435" y="705"/>
    </contour>
    <contour>
      <point x="34" y="1139" type="line"/>
      <point x="225" y="1139" type="line"/>
      <point x="226" y="1139" type="line"/>
      <point x="1429" y="1139" type="line"/>
      <point x="1431" y="1139" type="line"/>
      <point x="1434" y="1139" type="line"/>
      <point x="1434" y="1173" type="line"/>
      <point x="34" y="1173" type="line"/>
    </contour>
    <component base="_danda" xOffset="1234"/>
    <component base="_cap.shiro_left"/>
  </outline>
</glyph>
<glyph name="Bha.gm" format="2">
  <advance width="1596"/>
  <unicode hex="0A2D"/>
  <anchor x="1403" y="100" name="bottom"/>
  <anchor x="1366" y="90" name="bottom1"/>
  <anchor x="1570" y="1200" name="top"/>
  <outline>
    <contour>
      <point x="739" y="-18" type="curve" smooth="yes"/>
      <point x="1196" y="-18"/>
      <point x="1410" y="124"/>
      <point x="1410" y="361" type="curve" smooth="yes"/>
      <point x="1410" y="368" type="line" smooth="yes"/>
      <point x="1410" y="514"/>
      <point x="1320" y="605"/>
      <point x="1244" y="671" type="curve"/>
      <point x="1238" y="672" type="line"/>
      <point x="1092" y="792"/>
      <point x="874" y="871"/>
      <point x="639" y="871" type="curve" smooth="yes"/>
      <point x="359" y="871"/>
      <point x="195" y="806"/>
      <point x="195" y="646" type="curve"/>
      <point x="195" y="643" type="line"/>
      <point x="195" y="487"/>
      <point x="364" y="422"/>
      <point x="639" y="422" type="curve" smooth="yes"/>
      <point x="906" y="422"/>
      <point x="1119" y="510"/>
      <point x="1242" y="646" type="curve"/>
      <point x="1244" y="649" type="line"/>
      <point x="1247" y="654" type="line"/>
      <point x="1318" y="734"/>
      <point x="1403" y="879"/>
      <point x="1403" y="1119" type="curve" smooth="yes"/>
      <point x="1403" y="1157" type="line"/>
      <point x="1365" y="1157" type="line"/>
      <point x="1365" y="1119" type="line" smooth="yes"/>
      <point x="1365" y="902"/>
      <point x="1290" y="755"/>
      <point x="1217" y="672" type="curve"/>
      <point x="1213" y="669" type="line"/>
      <point x="1107" y="543"/>
      <point x="897" y="457"/>
      <point x="639" y="457" type="curve" smooth="yes"/>
      <point x="396" y="457"/>
      <point x="234" y="509"/>
      <point x="234" y="643" type="curve"/>
      <point x="234" y="646" type="line"/>
      <point x="234" y="785"/>
      <point x="394" y="836"/>
      <point x="639" y="836" type="curve" smooth="yes"/>
      <point x="858" y="836"/>
      <point x="1072" y="761"/>
      <point x="1214" y="646" type="curve"/>
      <point x="1217" y="645" type="line"/>
      <point x="1291" y="591"/>
      <point x="1371" y="499"/>
      <point x="1371" y="367" type="curve" smooth="yes"/>
      <point x="1371" y="363" type="line" smooth="yes"/>
      <point x="1371" y="144"/>
      <point x="1171" y="17"/>
      <point x="740" y="17" type="curve" smooth="yes"/>
      <point x="522" y="17"/>
      <point x="309" y="57"/>
      <point x="118" y="134" type="curve"/>
      <point x="128" y="89" type="line"/>
      <point x="309" y="19"/>
      <point x="518" y="-18"/>
    </contour>
    <contour>
      <point x="41" y="1139" type="line"/>
      <point x="1586" y="1139" type="line"/>
      <point x="1586" y="1173" type="line"/>
      <point x="41" y="1173" type="line"/>
    </contour>
    <component base="_cap.shiro_left"/>
    <component base="_cap.shiro_right" xOffset="1395"/>
  </outline>
</glyph>
<glyph name="Ma.gm" format="2">
  <advance width="1550"/>
  <unicode hex="0A2E"/>
  <anchor x="1650" y="100" name="bottom"/>
  <anchor x="1440" y="100" name="bottom1"/>
  <anchor x="1450" y="1200" name="top"/>
  <outline>
    <contour>
      <point x="246" y="92" type="curve"/>
      <point x="286" y="92" type="line"/>
      <point x="308" y="247"/>
      <point x="321" y="406"/>
      <point x="321" y="521" type="curve" smooth="yes"/>
      <point x="321" y="713"/>
      <point x="302" y="955"/>
      <point x="267" y="1173" type="curve"/>
      <point x="37" y="1173" type="line"/>
      <point x="40" y="1139" type="line"/>
      <point x="235" y="1139" type="line"/>
      <point x="268" y="931"/>
      <point x="284" y="700"/>
      <point x="284" y="519" type="curve" smooth="yes"/>
      <point x="284" y="402"/>
      <point x="271" y="244"/>
    </contour>
    <contour>
      <point x="307" y="463" type="line"/>
      <point x="1265" y="463" type="line"/>
      <point x="1265" y="497" type="line"/>
      <point x="307" y="497" type="line"/>
    </contour>
    <component base="_danda" xOffset="1068"/>
    <component base="_cap.shiro_left"/>
  </outline>
</glyph>
<glyph name="Ya.gm" format="2">
  <advance width="1951"/>
  <unicode hex="0A2F"/>
  <anchor x="2051" y="100" name="bottom"/>
  <anchor x="1620" y="100" name="bottom1"/>
  <anchor x="1851" y="1200" name="top"/>
  <outline>
    <contour>
      <point x="722" y="204" type="curve" smooth="yes"/>
      <point x="799" y="204"/>
      <point x="915" y="219"/>
      <point x="1005" y="248" type="curve"/>
      <point x="1005" y="698" type="line"/>
      <point x="1663" y="698" type="line"/>
      <point x="1663" y="732" type="line"/>
      <point x="968" y="732" type="line"/>
      <point x="968" y="255" type="line"/>
      <point x="992" y="283" type="line"/>
      <point x="916" y="255"/>
      <point x="811" y="239"/>
      <point x="722" y="239" type="curve" smooth="yes"/>
      <point x="512" y="239"/>
      <point x="355" y="295"/>
      <point x="251" y="403" type="curve"/>
      <point x="308" y="519"/>
      <point x="340" y="727"/>
      <point x="340" y="978" type="curve" smooth="yes"/>
      <point x="340" y="1034"/>
      <point x="338" y="1091"/>
      <point x="335" y="1150" type="curve"/>
      <point x="297" y="1150" type="line"/>
      <point x="300" y="1094"/>
      <point x="301" y="1040"/>
      <point x="301" y="988" type="curve" smooth="yes"/>
      <point x="301" y="731"/>
      <point x="266" y="519"/>
      <point x="205" y="399" type="curve"/>
      <point x="320" y="271"/>
      <point x="494" y="204"/>
    </contour>
    <contour>
      <point x="21" y="1139" type="line"/>
      <point x="1674" y="1139" type="line"/>
      <point x="1674" y="1173" type="line"/>
      <point x="21" y="1173" type="line"/>
    </contour>
    <component base="_danda" xOffset="1469"/>
    <component base="_cap.shiro_left"/>
  </outline>
</glyph>
<glyph name="Ra.gm" format="2">
  <advance width="1670"/>
  <unicode hex="0A30"/>
  <anchor x="1520" y="100" name="bottom"/>
  <anchor x="1519" y="100" name="bottom1"/>
  <anchor x="1592" y="1200" name="top"/>
  <outline>
    <contour>
      <point x="871" y="-18" type="curve" smooth="yes"/>
      <point x="1235" y="-18"/>
      <point x="1425" y="136"/>
      <point x="1425" y="432" type="curve" smooth="yes"/>
      <point x="1425" y="1157" type="line"/>
      <point x="1388" y="1157" type="line"/>
      <point x="1388" y="709" type="line"/>
      <point x="1388" y="699" type="line"/>
      <point x="1388" y="432" type="line"/>
      <point x="1388" y="159"/>
      <point x="1211" y="17"/>
      <point x="871" y="17" type="curve" smooth="yes"/>
      <point x="501" y="17"/>
      <point x="225" y="183"/>
      <point x="225" y="422" type="curve" smooth="yes"/>
      <point x="225" y="431" type="line" smooth="yes"/>
      <point x="225" y="572"/>
      <point x="316" y="686"/>
      <point x="549" y="686" type="curve" smooth="yes"/>
      <point x="1408" y="686" type="line"/>
      <point x="1408" y="720" type="line"/>
      <point x="549" y="720" type="line" smooth="yes"/>
      <point x="291" y="720"/>
      <point x="186" y="594"/>
      <point x="186" y="431" type="curve" smooth="yes"/>
      <point x="186" y="422" type="line" smooth="yes"/>
      <point x="186" y="161"/>
      <point x="478" y="-18"/>
    </contour>
    <contour>
      <point x="21" y="1139" type="line"/>
      <point x="1655" y="1139" type="line"/>
      <point x="1655" y="1173" type="line"/>
      <point x="21" y="1173" type="line"/>
    </contour>
    <component base="_cap.shiro_left"/>
    <component base="_cap.shiro_right" xOffset="1474"/>
  </outline>
</glyph>
<glyph name="La.gm" format="2">
  <advance width="1832"/>
  <unicode hex="0A32"/>
  <anchor x="1851" y="100" name="bottom"/>
  <anchor x="1576" y="100" name="bottom1"/>
  <anchor x="1653" y="1200" name="top"/>
  <outline>
    <contour>
      <point x="921" y="456" type="curve"/>
      <point x="1182" y="610"/>
      <point x="1380" y="787"/>
      <point x="1477" y="1118" type="curve" smooth="yes"/>
      <point x="1487" y="1152" type="line"/>
      <point x="1448" y="1152" type="line"/>
      <point x="1438" y="1118" type="line" smooth="yes"/>
      <point x="1348" y="813"/>
      <point x="1162" y="647"/>
      <point x="921" y="496" type="curve"/>
      <point x="655" y="647"/>
      <point x="490" y="820"/>
      <point x="402" y="1118" type="curve" smooth="yes"/>
      <point x="392" y="1152" type="line"/>
      <point x="353" y="1152" type="line"/>
      <point x="363" y="1118" type="line" smooth="yes"/>
      <point x="458" y="795"/>
      <point x="633" y="610"/>
    </contour>
    <contour>
      <point x="351" y="0" type="curve"/>
      <point x="402" y="0" type="line"/>
      <point x="409" y="0" type="line"/>
      <point x="277" y="99"/>
      <point x="209" y="224"/>
      <point x="209" y="356" type="curve" smooth="yes"/>
      <point x="209" y="370" type="line" smooth="yes"/>
      <point x="209" y="559"/>
      <point x="340" y="703"/>
      <point x="561" y="756" type="curve"/>
      <point x="538" y="788" type="line"/>
      <point x="307" y="725"/>
      <point x="170" y="570"/>
      <point x="170" y="370" type="curve" smooth="yes"/>
      <point x="170" y="370" type="line" smooth="yes"/>
      <point x="170" y="239"/>
      <point x="232" y="103"/>
    </contour>
    <contour>
      <point x="1477" y="0" type="line"/>
      <point x="1596" y="103"/>
      <point x="1658" y="225"/>
      <point x="1658" y="356" type="curve" smooth="yes"/>
      <point x="1658" y="370" type="line" smooth="yes"/>
      <point x="1658" y="570"/>
      <point x="1521" y="725"/>
      <point x="1290" y="788" type="curve"/>
      <point x="1267" y="756" type="line"/>
      <point x="1488" y="701"/>
      <point x="1619" y="558"/>
      <point x="1619" y="370" type="curve" smooth="yes"/>
      <point x="1619" y="356" type="line" smooth="yes"/>
      <point x="1619" y="224"/>
      <point x="1551" y="99"/>
      <point x="1419" y="0" type="curve"/>
      <point x="1426" y="0" type="line"/>
    </contour>
    <contour>
      <point x="26" y="1139" type="line"/>
      <point x="1800" y="1139" type="line"/>
      <point x="1800" y="1173" type="line"/>
      <point x="26" y="1173" type="line"/>
    </contour>
    <component base="_cap.shiro_left"/>
    <component base="_cap.shiro_right" xOffset="1631"/>
  </outline>
</glyph>
<glyph name="Va.gm" format="2">
  <advance width="1649"/>
  <unicode hex="0A35"/>
  <anchor x="1510" y="75" name="bottom"/>
  <anchor x="1610" y="100" name="bottom1"/>
  <anchor x="1591" y="1200" name="top"/>
  <outline>
    <contour>
      <point x="440" y="405" type="curve"/>
      <point x="1389" y="405" type="line"/>
      <point x="1389" y="439" type="line"/>
      <point x="440" y="439" type="line" smooth="yes"/>
      <point x="279" y="444"/>
      <point x="192" y="509"/>
      <point x="192" y="627" type="curve" smooth="yes"/>
      <point x="192" y="748"/>
      <point x="277" y="811"/>
      <point x="440" y="811" type="curve" smooth="yes"/>
      <point x="1424" y="811" type="line"/>
      <point x="1424" y="1155" type="line"/>
      <point x="1387" y="1155" type="line"/>
      <point x="1387" y="845" type="line"/>
      <point x="440" y="845" type="line" smooth="yes"/>
      <point x="253" y="845"/>
      <point x="153" y="768"/>
      <point x="153" y="627" type="curve" smooth="yes"/>
      <point x="153" y="488"/>
      <point x="253" y="410"/>
    </contour>
    <contour>
      <point x="1189" y="-9" type="curve" smooth="yes"/>
      <point x="1276" y="-9"/>
      <point x="1373" y="3"/>
      <point x="1443" y="23" type="curve"/>
      <point x="1454" y="58" type="line"/>
      <point x="1376" y="38"/>
      <point x="1274" y="26"/>
      <point x="1188" y="26" type="curve" smooth="yes"/>
      <point x="925" y="26"/>
      <point x="676" y="107"/>
      <point x="606" y="422" type="curve"/>
      <point x="562" y="422" type="line"/>
      <point x="652" y="73"/>
      <point x="910" y="-9"/>
    </contour>
    <contour>
      <point x="41" y="1139" type="line"/>
      <point x="1403" y="1139" type="line"/>
      <point x="1410" y="1139" type="line"/>
      <point x="1650" y="1139" type="line"/>
      <point x="1650" y="1173" type="line"/>
      <point x="41" y="1173" type="line"/>
    </contour>
    <component base="_cap.shiro_left"/>
    <component base="_cap.shiro_right" xOffset="1448"/>
  </outline>
</glyph>
<glyph name="Sha.gm" format="2">
  <advance width="1595"/>
  <unicode hex="0A36"/>
  <anchor x="1718" y="100" name="bottom"/>
  <anchor x="1480" y="100" name="bottom1"/>
  <anchor x="1518" y="1200" name="top"/>
  <outline>
    <contour>
      <point x="245" y="92" type="curve"/>
      <point x="285" y="92" type="line"/>
      <point x="307" y="247"/>
      <point x="320" y="406"/>
      <point x="320" y="521" type="curve" smooth="yes"/>
      <point x="320" y="713"/>
      <point x="301" y="955"/>
      <point x="266" y="1173" type="curve"/>
      <point x="37" y="1173" type="line"/>
      <point x="40" y="1139" type="line"/>
      <point x="234" y="1139" type="line"/>
      <point x="267" y="931"/>
      <point x="283" y="700"/>
      <point x="283" y="519" type="curve" smooth="yes"/>
      <point x="283" y="402"/>
      <point x="270" y="244"/>
    </contour>
    <contour>
      <point x="306" y="463" type="line"/>
      <point x="1334" y="463" type="line"/>
      <point x="1334" y="497" type="line"/>
      <point x="306" y="497" type="line"/>
    </contour>
    <contour>
      <point x="1314" y="0" type="line"/>
      <point x="1351" y="0" type="line"/>
      <point x="1351" y="1139" type="line"/>
      <point x="1600" y="1139" type="line"/>
      <point x="1600" y="1173" type="line"/>
      <point x="1314" y="1173" type="line"/>
      <point x="1314" y="482" type="line"/>
      <point x="1314" y="479" type="line"/>
    </contour>
    <contour>
      <point x="165" y="1139" type="line"/>
      <point x="1334" y="1139" type="line"/>
      <point x="1334" y="1173" type="line"/>
      <point x="165" y="1173" type="line"/>
    </contour>
    <contour>
      <point x="821" y="110" type="curve" smooth="yes"/>
      <point x="864" y="110"/>
      <point x="888" y="131"/>
      <point x="888" y="170" type="curve" smooth="yes"/>
      <point x="888" y="173" type="line" smooth="yes"/>
      <point x="888" y="210"/>
      <point x="864" y="231"/>
      <point x="821" y="231" type="curve" smooth="yes"/>
      <point x="780" y="231"/>
      <point x="755" y="210"/>
      <point x="755" y="173" type="curve" smooth="yes"/>
      <point x="755" y="170" type="line" smooth="yes"/>
      <point x="755" y="131"/>
      <point x="780" y="110"/>
    </contour>
    <component base="_cap.shiro_right" xOffset="1399"/>
    <component base="_cap.shiro_left"/>
  </outline>
</glyph>
<glyph name="Sa.gm" format="2">
  <advance width="1600"/>
  <unicode hex="0A38"/>
  <anchor x="1700" y="100" name="bottom"/>
  <anchor x="1490" y="100" name="bottom1"/>
  <anchor x="1500" y="1200" name="top"/>
  <outline>
    <contour>
      <point x="246" y="93" type="curve"/>
      <point x="286" y="93" type="line"/>
      <point x="308" y="248"/>
      <point x="321" y="407"/>
      <point x="321" y="522" type="curve" smooth="yes"/>
      <point x="321" y="714"/>
      <point x="297" y="955"/>
      <point x="257" y="1173" type="curve"/>
      <point x="38" y="1173" type="line"/>
      <point x="41" y="1139" type="line"/>
      <point x="225" y="1139" type="line"/>
      <point x="263" y="931"/>
      <point x="284" y="701"/>
      <point x="284" y="520" type="curve" smooth="yes"/>
      <point x="284" y="403"/>
      <point x="271" y="245"/>
    </contour>
    <contour>
      <point x="306" y="463" type="line"/>
      <point x="1313" y="463" type="line"/>
      <point x="1313" y="497" type="line"/>
      <point x="306" y="497" type="line"/>
    </contour>
    <contour>
      <point x="140" y="1139" type="line"/>
      <point x="1419" y="1139" type="line"/>
      <point x="1419" y="1173" type="line"/>
      <point x="140" y="1173" type="line"/>
    </contour>
    <component base="_cap.shiro_left"/>
    <component base="_danda" xOffset="1118"/>
  </outline>
</glyph>
<glyph name="Ha.gm" format="2">
  <advance width="1648"/>
  <unicode hex="0A39"/>
  <anchor x="1500" y="100" name="bottom"/>
  <anchor x="1510" y="100" name="bottom1"/>
  <anchor x="1566" y="1200" name="top"/>
  <outline>
    <contour>
      <point x="855" y="-18" type="curve" smooth="yes"/>
      <point x="1218" y="-18"/>
      <point x="1399" y="155"/>
      <point x="1399" y="447" type="curve" smooth="yes"/>
      <point x="1399" y="1157" type="line"/>
      <point x="1362" y="1157" type="line"/>
      <point x="1362" y="447" type="line"/>
      <point x="1362" y="174"/>
      <point x="1196" y="17"/>
      <point x="855" y="17" type="curve" smooth="yes"/>
      <point x="485" y="17"/>
      <point x="219" y="181"/>
      <point x="219" y="402" type="curve" smooth="yes"/>
      <point x="219" y="411" type="line" smooth="yes"/>
      <point x="219" y="576"/>
      <point x="356" y="671"/>
      <point x="593" y="671" type="curve" smooth="yes"/>
      <point x="928" y="671" type="line"/>
      <point x="943" y="705" type="line"/>
      <point x="593" y="705" type="line" smooth="yes"/>
      <point x="333" y="705"/>
      <point x="180" y="596"/>
      <point x="180" y="411" type="curve" smooth="yes"/>
      <point x="180" y="402" type="line" smooth="yes"/>
      <point x="180" y="160"/>
      <point x="462" y="-18"/>
    </contour>
    <contour>
      <point x="21" y="1139" type="line"/>
      <point x="1628" y="1139" type="line"/>
      <point x="1628" y="1173" type="line"/>
      <point x="21" y="1173" type="line"/>
    </contour>
    <component base="_cap.shiro_left"/>
    <component base="_cap.shiro_right" xOffset="1447"/>
  </outline>
</glyph>
<glyph name="Nukta.gm" format="2">
  <unicode hex="0A3C"/>
  <outline>
    <contour>
      <point x="-154" y="-172" type="curve" smooth="yes"/>
      <point x="-111" y="-172"/>
      <point x="-87" y="-151"/>
      <point x="-87" y="-112" type="curve" smooth="yes"/>
      <point x="-87" y="-109" type="line" smooth="yes"/>
      <point x="-87" y="-72"/>
      <point x="-111" y="-51"/>
      <point x="-154" y="-51" type="curve" smooth="yes"/>
      <point x="-195" y="-51"/>
      <point x="-220" y="-72"/>
      <point x="-220" y="-109" type="curve" smooth="yes"/>
      <point x="-220" y="-112" type="line" smooth="yes"/>
      <point x="-220" y="-151"/>
      <point x="-195" y="-172"/>
    </contour>
  </outline>
</glyph>
<glyph name="MatraU.gm" format="2">
  <unicode hex="0A41"/>
  <anchor x="800" y="100" name="_bottom1"/>
  <outline>
    <contour>
      <point x="133" y="-346" type="curve" smooth="yes"/>
      <point x="297" y="-346"/>
      <point x="486" y="-309"/>
      <point x="615" y="-232" type="curve"/>
      <point x="619" y="-195" type="line"/>
      <point x="491" y="-272"/>
      <point x="313" y="-311"/>
      <point x="138" y="-311" type="curve" smooth="yes"/>
      <point x="-27" y="-311"/>
      <point x="-218" y="-272"/>
      <point x="-341" y="-195" type="curve"/>
      <point x="-337" y="-232" type="line"/>
      <point x="-218" y="-309"/>
      <point x="-30" y="-346"/>
    </contour>
  </outline>
</glyph>
<glyph name="MatraUu.gm" format="2">
  <unicode hex="0A42"/>
  <anchor x="800" y="100" name="_bottom1"/>
  <outline>
    <contour>
      <point x="133" y="-327" type="curve" smooth="yes"/>
      <point x="297" y="-327"/>
      <point x="486" y="-290"/>
      <point x="615" y="-213" type="curve"/>
      <point x="619" y="-176" type="line"/>
      <point x="491" y="-253"/>
      <point x="313" y="-292"/>
      <point x="138" y="-292" type="curve" smooth="yes"/>
      <point x="-27" y="-292"/>
      <point x="-218" y="-253"/>
      <point x="-341" y="-176" type="curve"/>
      <point x="-337" y="-213" type="line"/>
      <point x="-218" y="-290"/>
      <point x="-30" y="-327"/>
    </contour>
    <contour>
      <point x="133" y="-607" type="curve" smooth="yes"/>
      <point x="297" y="-607"/>
      <point x="486" y="-570"/>
      <point x="615" y="-493" type="curve"/>
      <point x="619" y="-456" type="line"/>
      <point x="491" y="-533"/>
      <point x="313" y="-572"/>
      <point x="138" y="-572" type="curve" smooth="yes"/>
      <point x="-27" y="-572"/>
      <point x="-218" y="-533"/>
      <point x="-341" y="-456" type="curve"/>
      <point x="-337" y="-493" type="line"/>
      <point x="-218" y="-570"/>
      <point x="-30" y="-607"/>
    </contour>
  </outline>
</glyph>
<glyph name="MatraAi.gm" format="2">
  <unicode hex="0A48"/>
  <anchor x="600" y="1200" name="_top"/>
  <anchor x="918" y="1362" name="top1"/>
  <outline>
    <contour>
      <point x="402" y="1168" type="line"/>
      <point x="433" y="1168" type="line"/>
      <point x="431" y="1205" type="line" smooth="yes"/>
      <point x="408" y="1628"/>
      <point x="221" y="1820"/>
      <point x="-300" y="1820" type="curve" smooth="yes"/>
      <point x="-400" y="1820"/>
      <point x="-532" y="1807"/>
      <point x="-685" y="1783" type="curve"/>
      <point x="-696" y="1747" type="line"/>
      <point x="-541" y="1771"/>
      <point x="-405" y="1784"/>
      <point x="-300" y="1784" type="curve" smooth="yes"/>
      <point x="195" y="1784"/>
      <point x="344" y="1600"/>
      <point x="401" y="1284" type="curve"/>
      <point x="395" y="1282" type="line"/>
    </contour>
    <contour>
      <point x="396" y="1168" type="line"/>
      <point x="421" y="1168" type="line"/>
      <point x="415" y="1210" type="line" smooth="yes"/>
      <point x="390" y="1388"/>
      <point x="242" y="1512"/>
      <point x="-209" y="1512" type="curve" smooth="yes"/>
      <point x="-289" y="1512"/>
      <point x="-410" y="1502"/>
      <point x="-562" y="1484" type="curve"/>
      <point x="-573" y="1448" type="line"/>
      <point x="-417" y="1466"/>
      <point x="-291" y="1476"/>
      <point x="-207" y="1476" type="curve" smooth="yes"/>
      <point x="229" y="1476"/>
      <point x="396" y="1334"/>
      <point x="396" y="1179" type="curve" smooth="yes"/>
    </contour>
  </outline>
</glyph>
<glyph name="MatraOo.gm" format="2">
  <unicode hex="0A4B"/>
  <anchor x="600" y="1200" name="_top"/>
  <anchor x="816" y="1344" name="top1"/>
  <outline>
    <contour>
      <point x="396" y="1159" type="curve"/>
      <point x="433" y="1159" type="line"/>
      <point x="433" y="1161"/>
      <point x="433" y="1162"/>
      <point x="433" y="1164" type="curve" smooth="yes"/>
      <point x="433" y="1409"/>
      <point x="317" y="1481"/>
      <point x="93" y="1497" type="curve" smooth="yes"/>
      <point x="-182" y="1517" type="line" smooth="yes"/>
      <point x="-359" y="1530"/>
      <point x="-486" y="1581"/>
      <point x="-486" y="1780" type="curve"/>
      <point x="-515" y="1780" type="line"/>
      <point x="-515" y="1758" type="line" smooth="yes"/>
      <point x="-515" y="1565"/>
      <point x="-389" y="1499"/>
      <point x="-177" y="1483" type="curve" smooth="yes"/>
      <point x="96" y="1463" type="line" smooth="yes"/>
      <point x="296" y="1448"/>
      <point x="396" y="1392"/>
    </contour>
  </outline>
</glyph>
<glyph name="MatraAu.gm" format="2">
  <unicode hex="0A4C"/>
  <anchor x="600" y="1200" name="_top"/>
  <anchor x="1127" y="1461" name="top1"/>
  <outline>
    <contour>
      <point x="173" y="1351" type="curve"/>
      <point x="203" y="1351" type="line"/>
      <point x="176" y="1387"/>
      <point x="161" y="1430"/>
      <point x="161" y="1471" type="curve" smooth="yes"/>
      <point x="161" y="1593"/>
      <point x="268" y="1661"/>
      <point x="414" y="1661" type="curve" smooth="yes"/>
      <point x="564" y="1661"/>
      <point x="667" y="1593"/>
      <point x="667" y="1471" type="curve" smooth="yes"/>
      <point x="667" y="1430"/>
      <point x="652" y="1388"/>
      <point x="624" y="1351" type="curve"/>
      <point x="655" y="1351" type="line"/>
      <point x="684" y="1387"/>
      <point x="700" y="1431"/>
      <point x="700" y="1475" type="curve" smooth="yes"/>
      <point x="700" y="1616"/>
      <point x="582" y="1696"/>
      <point x="414" y="1696" type="curve" smooth="yes"/>
      <point x="369" y="1696"/>
      <point x="327" y="1690"/>
      <point x="291" y="1679" type="curve"/>
      <point x="291" y="1673" type="line"/>
      <point x="191" y="1650"/>
      <point x="128" y="1575"/>
      <point x="128" y="1475" type="curve" smooth="yes"/>
      <point x="128" y="1432"/>
      <point x="144" y="1387"/>
    </contour>
    <contour>
      <point x="42" y="1663" type="curve" smooth="yes"/>
      <point x="136" y="1663"/>
      <point x="203" y="1663"/>
      <point x="258" y="1667" type="curve"/>
      <point x="260" y="1662" type="line"/>
      <point x="333" y="1663" type="line"/>
      <point x="414" y="1696" type="line"/>
      <point x="55" y="1696" type="line" smooth="yes"/>
      <point x="-104" y="1696"/>
      <point x="-239" y="1733"/>
      <point x="-239" y="1906" type="curve"/>
      <point x="-268" y="1906" type="line"/>
      <point x="-268" y="1894" type="line" smooth="yes"/>
      <point x="-268" y="1707"/>
      <point x="-118" y="1663"/>
    </contour>
  </outline>
</glyph>
<glyph name="Virama.gm" format="2">
  <unicode hex="0A4D"/>
  <anchor x="800" y="100" name="_bottom"/>
  <outline>
    <contour>
      <point x="679" y="-518" type="line"/>
      <point x="718" y="-518" type="line"/>
      <point x="452" y="-150" type="line"/>
      <point x="410" y="-150" type="line"/>
    </contour>
  </outline>
</glyph>
<glyph name="Udaat.gm" format="2">
  <unicode hex="0A51"/>
  <anchor x="800" y="100" name="_bottom"/>
  <anchor x="690" y="300" name="bottom1"/>
  <outline>
    <contour>
      <point x="767" y="-518" type="curve"/>
      <point x="767" y="-484" type="line"/>
      <point x="580" y="-484"/>
      <point x="431" y="-365"/>
      <point x="431" y="-150" type="curve"/>
      <point x="394" y="-150" type="line"/>
      <point x="394" y="-383"/>
      <point x="562" y="-518"/>
    </contour>
  </outline>
</glyph>
<glyph name="Za.gm" format="2">
  <advance width="1675"/>
  <unicode hex="0A5B"/>
  <anchor x="1775" y="100" name="bottom"/>
  <anchor x="1500" y="100" name="bottom1"/>
  <anchor x="1575" y="1200" name="top"/>
  <outline>
    <contour>
      <point x="255" y="0" type="curve"/>
      <point x="292" y="0" type="line"/>
      <point x="316" y="171"/>
      <point x="328" y="362"/>
      <point x="328" y="542" type="curve" smooth="yes"/>
      <point x="328" y="682"/>
      <point x="318" y="829"/>
      <point x="302" y="938" type="curve"/>
      <point x="267" y="918" type="line"/>
      <point x="281" y="818"/>
      <point x="291" y="679"/>
      <point x="291" y="544" type="curve" smooth="yes"/>
      <point x="291" y="364"/>
      <point x="279" y="172"/>
    </contour>
    <contour>
      <point x="306" y="639" type="line"/>
      <point x="1394" y="639" type="line"/>
      <point x="1394" y="673" type="line"/>
      <point x="306" y="673" type="line"/>
    </contour>
    <contour>
      <point x="21" y="1139" type="line"/>
      <point x="1392" y="1139" type="line"/>
      <point x="1392" y="1173" type="line"/>
      <point x="21" y="1173" type="line"/>
    </contour>
    <contour>
      <point x="859" y="153" type="curve" smooth="yes"/>
      <point x="902" y="153"/>
      <point x="926" y="174"/>
      <point x="926" y="213" type="curve" smooth="yes"/>
      <point x="926" y="216" type="line" smooth="yes"/>
      <point x="926" y="253"/>
      <point x="902" y="274"/>
      <point x="859" y="274" type="curve" smooth="yes"/>
      <point x="818" y="274"/>
      <point x="793" y="253"/>
      <point x="793" y="216" type="curve" smooth="yes"/>
      <point x="793" y="213" type="line" smooth="yes"/>
      <point x="793" y="174"/>
      <point x="818" y="153"/>
    </contour>
    <component base="_danda" xOffset="1193"/>
    <component base="_cap.shiro_left"/>
  </outline>
</glyph>
<glyph name="Rra.gm" format="2">
  <advance width="1457"/>
  <unicode hex="0A5C"/>
  <anchor x="1260" y="0" name="bottom"/>
  <anchor x="1380" y="-10" name="bottom1"/>
  <anchor x="1433" y="1200" name="top"/>
  <outline>
    <contour>
      <point x="695" y="52" type="curve" smooth="yes"/>
      <point x="1084" y="52"/>
      <point x="1268" y="168"/>
      <point x="1268" y="377" type="curve" smooth="yes"/>
      <point x="1268" y="385" type="line" smooth="yes"/>
      <point x="1268" y="543"/>
      <point x="1129" y="686"/>
      <point x="833" y="686" type="curve"/>
      <point x="856" y="664" type="line"/>
      <point x="856" y="677" type="line"/>
      <point x="1114" y="668"/>
      <point x="1266" y="843"/>
      <point x="1266" y="1119" type="curve" smooth="yes"/>
      <point x="1266" y="1153" type="line"/>
      <point x="1227" y="1153" type="line"/>
      <point x="1227" y="1119" type="line" smooth="yes"/>
      <point x="1227" y="881"/>
      <point x="1110" y="696"/>
      <point x="822" y="696" type="curve" smooth="yes"/>
      <point x="212" y="696" type="line"/>
      <point x="212" y="662" type="line"/>
      <point x="822" y="662" type="line" smooth="yes"/>
      <point x="1077" y="662"/>
      <point x="1229" y="540"/>
      <point x="1229" y="381" type="curve" smooth="yes"/>
      <point x="1229" y="380" type="line" smooth="yes"/>
      <point x="1229" y="187"/>
      <point x="1048" y="87"/>
      <point x="695" y="87" type="curve" smooth="yes"/>
      <point x="493" y="87"/>
      <point x="295" y="127"/>
      <point x="118" y="204" type="curve"/>
      <point x="128" y="159" type="line"/>
      <point x="296" y="89"/>
      <point x="490" y="52"/>
    </contour>
    <contour>
      <point x="508" y="-228" type="line"/>
      <point x="559" y="-228" type="line"/>
      <point x="174" y="159" type="line"/>
      <point x="128" y="159" type="line"/>
    </contour>
    <contour>
      <point x="1323" y="-228" type="line"/>
      <point x="1376" y="-228" type="line"/>
      <point x="1013" y="108" type="line"/>
      <point x="973" y="101" type="line"/>
    </contour>
    <contour>
      <point x="21" y="1139" type="line"/>
      <point x="1457" y="1139" type="line"/>
      <point x="1457" y="1173" type="line"/>
      <point x="21" y="1173" type="line"/>
    </contour>
    <component base="_cap.shiro_left"/>
    <component base="_cap.shiro_right" xOffset="1266"/>
  </outline>
</glyph>
<glyph name="zero.gm" format="2">
  <advance width="1279"/>
  <unicode hex="0A66"/>
  <outline>
    <contour>
      <point x="639" y="163" type="curve" smooth="yes"/>
      <point x="939" y="163"/>
      <point x="1139" y="335"/>
      <point x="1139" y="593" type="curve" smooth="yes"/>
      <point x="1139" y="621" type="line" smooth="yes"/>
      <point x="1139" y="878"/>
      <point x="939" y="1049"/>
      <point x="639" y="1049" type="curve" smooth="yes"/>
      <point x="340" y="1049"/>
      <point x="140" y="878"/>
      <point x="140" y="621" type="curve" smooth="yes"/>
      <point x="140" y="593" type="line" smooth="yes"/>
      <point x="140" y="335"/>
      <point x="340" y="163"/>
    </contour>
    <contour>
      <point x="639" y="199" type="curve" smooth="yes"/>
      <point x="362" y="199"/>
      <point x="177" y="357"/>
      <point x="177" y="593" type="curve" smooth="yes"/>
      <point x="177" y="621" type="line" smooth="yes"/>
      <point x="177" y="857"/>
      <point x="362" y="1014"/>
      <point x="639" y="1014" type="curve" smooth="yes"/>
      <point x="916" y="1014"/>
      <point x="1101" y="857"/>
      <point x="1101" y="621" type="curve" smooth="yes"/>
      <point x="1101" y="593" type="line" smooth="yes"/>
      <point x="1101" y="357"/>
      <point x="916" y="199"/>
    </contour>
  </outline>
</glyph>
<glyph name="one.gm" format="2">
  <advance width="1413"/>
  <unicode hex="0A67"/>
  <outline>
    <contour>
      <point x="1176" y="0" type="line"/>
      <point x="1213" y="0" type="line"/>
      <point x="1213" y="754" type="line" smooth="yes"/>
      <point x="1213" y="1023"/>
      <point x="1002" y="1192"/>
      <point x="671" y="1192" type="curve" smooth="yes"/>
      <point x="345" y="1192"/>
      <point x="150" y="1058"/>
      <point x="150" y="843" type="curve" smooth="yes"/>
      <point x="150" y="833" type="line" smooth="yes"/>
      <point x="150" y="617"/>
      <point x="345" y="482"/>
      <point x="671" y="482" type="curve" smooth="yes"/>
      <point x="932" y="482"/>
      <point x="1092" y="564"/>
      <point x="1157" y="609" type="curve"/>
      <point x="1176" y="650" type="line"/>
      <point x="1184" y="650" type="line"/>
      <point x="1176" y="659" type="line"/>
      <point x="1087" y="595"/>
      <point x="918" y="517"/>
      <point x="671" y="517" type="curve" smooth="yes"/>
      <point x="367" y="517"/>
      <point x="188" y="638"/>
      <point x="188" y="833" type="curve" smooth="yes"/>
      <point x="188" y="843" type="line" smooth="yes"/>
      <point x="188" y="1037"/>
      <point x="367" y="1157"/>
      <point x="671" y="1157" type="curve" smooth="yes"/>
      <point x="985" y="1157"/>
      <point x="1176" y="1006"/>
      <point x="1176" y="754" type="curve" smooth="yes"/>
    </contour>
  </outline>
</glyph>
<glyph name="two.gm" format="2">
  <advance width="1399"/>
  <unicode hex="0A68"/>
  <outline>
    <contour>
      <point x="624" y="365" type="curve" smooth="yes"/>
      <point x="1077" y="365"/>
      <point x="1249" y="520"/>
      <point x="1249" y="769" type="curve" smooth="yes"/>
      <point x="1249" y="776" type="line" smooth="yes"/>
      <point x="1249" y="1036"/>
      <point x="1063" y="1193"/>
      <point x="668" y="1193" type="curve" smooth="yes"/>
      <point x="409" y="1193"/>
      <point x="240" y="1113"/>
      <point x="135" y="1036" type="curve"/>
      <point x="135" y="988" type="line"/>
      <point x="240" y="1077"/>
      <point x="437" y="1158"/>
      <point x="666" y="1158" type="curve" smooth="yes"/>
      <point x="1035" y="1158"/>
      <point x="1211" y="1022"/>
      <point x="1211" y="776" type="curve" smooth="yes"/>
      <point x="1211" y="769" type="line" smooth="yes"/>
      <point x="1211" y="541"/>
      <point x="1060" y="400"/>
      <point x="624" y="400" type="curve" smooth="yes"/>
      <point x="426" y="400"/>
      <point x="254" y="434"/>
      <point x="120" y="496" type="curve"/>
      <point x="131" y="456" type="line"/>
      <point x="266" y="401"/>
      <point x="396" y="365"/>
    </contour>
    <contour>
      <point x="1010" y="-90" type="line"/>
      <point x="1073" y="-89" type="line"/>
      <point x="819" y="89"/>
      <point x="608" y="235"/>
      <point x="359" y="394" type="curve"/>
      <point x="337" y="409" type="line"/>
      <point x="262" y="426" type="line"/>
    </contour>
  </outline>
</glyph>
<glyph name="three.gm" format="2">
  <advance width="1411"/>
  <unicode hex="0A69"/>
  <outline>
    <contour>
      <point x="686" y="42" type="curve" smooth="yes"/>
      <point x="1056" y="42"/>
      <point x="1261" y="155"/>
      <point x="1261" y="346" type="curve"/>
      <point x="1261" y="367" type="line" smooth="yes"/>
      <point x="1261" y="515"/>
      <point x="1116" y="629"/>
      <point x="923" y="629" type="curve"/>
      <point x="965" y="605" type="line"/>
      <point x="965" y="621" type="line"/>
      <point x="1123" y="631"/>
      <point x="1238" y="721"/>
      <point x="1238" y="859" type="curve" smooth="yes"/>
      <point x="1238" y="881" type="line" smooth="yes"/>
      <point x="1238" y="1077"/>
      <point x="1036" y="1193"/>
      <point x="670" y="1193" type="curve" smooth="yes"/>
      <point x="498" y="1193"/>
      <point x="305" y="1150"/>
      <point x="151" y="1076" type="curve"/>
      <point x="151" y="1036" type="line"/>
      <point x="306" y="1113"/>
      <point x="498" y="1158"/>
      <point x="670" y="1158" type="curve" smooth="yes"/>
      <point x="1012" y="1158"/>
      <point x="1200" y="1054"/>
      <point x="1200" y="877" type="curve" smooth="yes"/>
      <point x="1200" y="862" type="line" smooth="yes"/>
      <point x="1200" y="741"/>
      <point x="1113" y="640"/>
      <point x="870" y="640" type="curve" smooth="yes"/>
      <point x="264" y="640" type="line"/>
      <point x="264" y="606" type="line"/>
      <point x="870" y="606" type="line" smooth="yes"/>
      <point x="1113" y="606"/>
      <point x="1223" y="503"/>
      <point x="1223" y="364" type="curve"/>
      <point x="1223" y="348" type="line" smooth="yes"/>
      <point x="1223" y="178"/>
      <point x="1032" y="77"/>
      <point x="686" y="77" type="curve" smooth="yes"/>
      <point x="493" y="77"/>
      <point x="325" y="108"/>
      <point x="120" y="193" type="curve"/>
      <point x="131" y="153" type="line"/>
      <point x="304" y="83"/>
      <point x="510" y="42"/>
    </contour>
    <contour>
      <point x="860" y="-228" type="line"/>
      <point x="931" y="-228" type="line"/>
      <point x="707" y="-97"/>
      <point x="529" y="12"/>
      <point x="429" y="68" type="curve"/>
      <point x="429" y="73" type="line"/>
      <point x="322" y="93" type="line"/>
    </contour>
  </outline>
</glyph>
<glyph name="four.gm" format="2">
  <advance width="1496"/>
  <unicode hex="0A6A"/>
  <outline>
    <contour>
      <point x="743" y="-10" type="curve" smooth="yes"/>
      <point x="1118" y="-10"/>
      <point x="1312" y="101"/>
      <point x="1312" y="315" type="curve" smooth="yes"/>
      <point x="1312" y="319" type="line" smooth="yes"/>
      <point x="1312" y="509"/>
      <point x="1163" y="612"/>
      <point x="913" y="623" type="curve"/>
      <point x="913" y="625" type="line"/>
      <point x="1205" y="645"/>
      <point x="1346" y="766"/>
      <point x="1346" y="973" type="curve" smooth="yes"/>
      <point x="1346" y="1043"/>
      <point x="1328" y="1118"/>
      <point x="1297" y="1173" type="curve"/>
      <point x="1260" y="1173" type="line"/>
      <point x="1291" y="1115"/>
      <point x="1309" y="1040"/>
      <point x="1309" y="973" type="curve" smooth="yes"/>
      <point x="1309" y="760"/>
      <point x="1150" y="643"/>
      <point x="748" y="643" type="curve" smooth="yes"/>
      <point x="345" y="643"/>
      <point x="187" y="760"/>
      <point x="187" y="973" type="curve" smooth="yes"/>
      <point x="187" y="1040"/>
      <point x="205" y="1115"/>
      <point x="236" y="1173" type="curve"/>
      <point x="198" y="1173" type="line"/>
      <point x="168" y="1117"/>
      <point x="150" y="1043"/>
      <point x="150" y="973" type="curve" smooth="yes"/>
      <point x="150" y="766"/>
      <point x="283" y="643"/>
      <point x="570" y="625" type="curve"/>
      <point x="570" y="623" type="line"/>
      <point x="327" y="612"/>
      <point x="175" y="506"/>
      <point x="175" y="319" type="curve" smooth="yes"/>
      <point x="175" y="315" type="line" smooth="yes"/>
      <point x="175" y="101"/>
      <point x="367" y="-10"/>
    </contour>
    <contour>
      <point x="743" y="25" type="curve" smooth="yes"/>
      <point x="392" y="25"/>
      <point x="214" y="123"/>
      <point x="214" y="315" type="curve" smooth="yes"/>
      <point x="214" y="319" type="line" smooth="yes"/>
      <point x="214" y="475"/>
      <point x="338" y="609"/>
      <point x="748" y="607" type="curve" smooth="yes"/>
      <point x="1163" y="605"/>
      <point x="1273" y="475"/>
      <point x="1273" y="319" type="curve" smooth="yes"/>
      <point x="1273" y="315" type="line" smooth="yes"/>
      <point x="1273" y="123"/>
      <point x="1095" y="25"/>
    </contour>
  </outline>
</glyph>
<glyph name="five.gm" format="2">
  <advance width="1486"/>
  <unicode hex="0A6B"/>
  <outline>
    <contour>
      <point x="742" y="228" type="curve" smooth="yes"/>
      <point x="927" y="228"/>
      <point x="1120" y="273"/>
      <point x="1230" y="336" type="curve"/>
      <point x="1249" y="371" type="line"/>
      <point x="1255" y="371" type="line"/>
      <point x="1255" y="383" type="line"/>
      <point x="1134" y="314"/>
      <point x="929" y="263"/>
      <point x="742" y="263" type="curve" smooth="yes"/>
      <point x="499" y="263"/>
      <point x="287" y="343"/>
      <point x="163" y="449" type="curve"/>
      <point x="227" y="647"/>
      <point x="256" y="813"/>
      <point x="256" y="1011" type="curve" smooth="yes"/>
      <point x="256" y="1063"/>
      <point x="254" y="1116"/>
      <point x="250" y="1173" type="curve"/>
      <point x="213" y="1173" type="line"/>
      <point x="217" y="1114"/>
      <point x="219" y="1059"/>
      <point x="219" y="1007" type="curve" smooth="yes"/>
      <point x="219" y="810"/>
      <point x="191" y="642"/>
      <point x="120" y="439" type="curve"/>
      <point x="273" y="302"/>
      <point x="482" y="228"/>
    </contour>
    <contour>
      <point x="1249" y="0" type="line"/>
      <point x="1286" y="0" type="line"/>
      <point x="1286" y="1173" type="line"/>
      <point x="1249" y="1173" type="line"/>
    </contour>
  </outline>
</glyph>
<glyph name="six.gm" format="2">
  <advance width="1386"/>
  <unicode hex="0A6C"/>
  <outline>
    <contour>
      <point x="726" y="-10" type="curve" smooth="yes"/>
      <point x="956" y="-10"/>
      <point x="1112" y="37"/>
      <point x="1241" y="101" type="curve"/>
      <point x="1252" y="141" type="line"/>
      <point x="1100" y="70"/>
      <point x="949" y="25"/>
      <point x="726" y="25" type="curve" smooth="yes"/>
      <point x="370" y="25"/>
      <point x="189" y="130"/>
      <point x="189" y="306" type="curve" smooth="yes"/>
      <point x="189" y="322" type="line"/>
      <point x="189" y="467"/>
      <point x="299" y="574"/>
      <point x="542" y="574" type="curve" smooth="yes"/>
      <point x="1148" y="574" type="line"/>
      <point x="1148" y="608" type="line"/>
      <point x="542" y="608" type="line" smooth="yes"/>
      <point x="299" y="608"/>
      <point x="212" y="714"/>
      <point x="212" y="840" type="curve" smooth="yes"/>
      <point x="212" y="855" type="line" smooth="yes"/>
      <point x="212" y="1032"/>
      <point x="393" y="1136"/>
      <point x="722" y="1136" type="curve" smooth="yes"/>
      <point x="887" y="1136"/>
      <point x="1097" y="1088"/>
      <point x="1221" y="1034" type="curve"/>
      <point x="1210" y="1069" type="line"/>
      <point x="1077" y="1124"/>
      <point x="888" y="1171"/>
      <point x="722" y="1171" type="curve" smooth="yes"/>
      <point x="369" y="1171"/>
      <point x="173" y="1055"/>
      <point x="173" y="859" type="curve" smooth="yes"/>
      <point x="173" y="837" type="line" smooth="yes"/>
      <point x="173" y="693"/>
      <point x="284" y="587"/>
      <point x="509" y="587" type="curve"/>
      <point x="509" y="579" type="line"/>
      <point x="534" y="600" type="line"/>
      <point x="276" y="600"/>
      <point x="150" y="479"/>
      <point x="150" y="325" type="curve" smooth="yes"/>
      <point x="150" y="304" type="line" smooth="yes"/>
      <point x="150" y="107"/>
      <point x="346" y="-10"/>
    </contour>
    <contour>
      <point x="1286" y="1464" type="curve"/>
      <point x="1275" y="1498" type="line"/>
      <point x="1216" y="1513"/>
      <point x="1157" y="1518"/>
      <point x="1098" y="1518" type="curve" smooth="yes"/>
      <point x="932" y="1518"/>
      <point x="840" y="1443"/>
      <point x="840" y="1331" type="curve" smooth="yes"/>
      <point x="840" y="1225"/>
      <point x="908" y="1157"/>
      <point x="1035" y="1115" type="curve"/>
      <point x="1038" y="1116" type="line"/>
      <point x="1047" y="1119" type="line"/>
      <point x="942" y="1172"/>
      <point x="879" y="1238"/>
      <point x="879" y="1331" type="curve" smooth="yes"/>
      <point x="879" y="1422"/>
      <point x="956" y="1484"/>
      <point x="1101" y="1484" type="curve" smooth="yes"/>
      <point x="1163" y="1484"/>
      <point x="1224" y="1479"/>
    </contour>
  </outline>
</glyph>
<glyph name="seven.gm" format="2">
  <advance width="1516"/>
  <unicode hex="0A6D"/>
  <outline>
    <contour>
      <point x="168" y="0" type="line"/>
      <point x="465" y="0" type="line" smooth="yes"/>
      <point x="1006" y="0"/>
      <point x="1366" y="232"/>
      <point x="1366" y="643" type="curve" smooth="yes"/>
      <point x="1366" y="661" type="line" smooth="yes"/>
      <point x="1366" y="986"/>
      <point x="1164" y="1191"/>
      <point x="750" y="1191" type="curve" smooth="yes"/>
      <point x="411" y="1191"/>
      <point x="150" y="1007"/>
      <point x="150" y="695" type="curve" smooth="yes"/>
      <point x="150" y="637" type="line"/>
      <point x="187" y="637" type="line"/>
      <point x="187" y="693" type="line" smooth="yes"/>
      <point x="187" y="984"/>
      <point x="433" y="1156"/>
      <point x="750" y="1156" type="curve" smooth="yes"/>
      <point x="1142" y="1156"/>
      <point x="1327" y="964"/>
      <point x="1327" y="661" type="curve" smooth="yes"/>
      <point x="1327" y="645" type="line" smooth="yes"/>
      <point x="1327" y="255"/>
      <point x="982" y="34"/>
      <point x="465" y="34" type="curve" smooth="yes"/>
      <point x="157" y="34" type="line"/>
    </contour>
  </outline>
</glyph>
<glyph name="eight.gm" format="2">
  <advance width="1500"/>
  <unicode hex="0A6E"/>
  <outline>
    <contour>
      <point x="934" y="-17" type="curve" smooth="yes"/>
      <point x="1131" y="-17"/>
      <point x="1301" y="40"/>
      <point x="1388" y="84" type="curve"/>
      <point x="1400" y="128" type="line"/>
      <point x="1307" y="79"/>
      <point x="1129" y="18"/>
      <point x="934" y="18" type="curve" smooth="yes"/>
      <point x="476" y="18"/>
      <point x="237" y="246"/>
      <point x="237" y="681" type="curve" smooth="yes"/>
      <point x="237" y="1193" type="line"/>
      <point x="200" y="1173" type="line"/>
      <point x="200" y="681" type="line" smooth="yes"/>
      <point x="200" y="223"/>
      <point x="452" y="-17"/>
    </contour>
    <contour>
      <point x="217" y="890" type="line"/>
      <point x="1373" y="892" type="line"/>
      <point x="1373" y="926" type="line"/>
      <point x="217" y="924" type="line"/>
    </contour>
  </outline>
</glyph>
<glyph name="nine.gm" format="2">
  <advance width="1500"/>
  <unicode hex="0A6F"/>
  <outline>
    <contour>
      <point x="934" y="-17" type="curve" smooth="yes"/>
      <point x="1131" y="-17"/>
      <point x="1301" y="40"/>
      <point x="1388" y="84" type="curve"/>
      <point x="1400" y="128" type="line"/>
      <point x="1307" y="79"/>
      <point x="1129" y="18"/>
      <point x="934" y="18" type="curve" smooth="yes"/>
      <point x="476" y="18"/>
      <point x="237" y="246"/>
      <point x="237" y="681" type="curve" smooth="yes"/>
      <point x="237" y="1193" type="line"/>
      <point x="200" y="1173" type="line"/>
      <point x="200" y="681" type="line" smooth="yes"/>
      <point x="200" y="223"/>
      <point x="452" y="-17"/>
    </contour>
    <contour>
      <point x="217" y="890" type="line"/>
      <point x="1373" y="892" type="line"/>
      <point x="1373" y="926" type="line"/>
      <point x="217" y="924" type="line"/>
    </contour>
    <contour>
      <point x="1189" y="911" type="line"/>
      <point x="1277" y="922" type="line"/>
      <point x="1135" y="969"/>
      <point x="1031" y="1037"/>
      <point x="1031" y="1154" type="curve" smooth="yes"/>
      <point x="1031" y="1252"/>
      <point x="1111" y="1319"/>
      <point x="1263" y="1319" type="curve" smooth="yes"/>
      <point x="1336" y="1319"/>
      <point x="1402" y="1312"/>
      <point x="1458" y="1299" type="curve"/>
      <point x="1447" y="1333" type="line"/>
      <point x="1394" y="1346"/>
      <point x="1330" y="1353"/>
      <point x="1260" y="1353" type="curve" smooth="yes"/>
      <point x="1088" y="1353"/>
      <point x="992" y="1272"/>
      <point x="992" y="1154" type="curve" smooth="yes"/>
      <point x="992" y="1026"/>
      <point x="1097" y="960"/>
      <point x="1189" y="928" type="curve"/>
    </contour>
  </outline>
</glyph>
<glyph name="Ura.gm" format="2">
  <advance width="1721"/>
  <unicode hex="0A73"/>
  <anchor x="2017" y="1348" name="top1"/>
  <outline>
    <contour>
      <point x="955" y="-27" type="curve" smooth="yes"/>
      <point x="1325" y="-27"/>
      <point x="1472" y="123"/>
      <point x="1472" y="315" type="curve" smooth="yes"/>
      <point x="1472" y="321" type="line" smooth="yes"/>
      <point x="1472" y="505"/>
      <point x="1296" y="638"/>
      <point x="1059" y="638" type="curve"/>
      <point x="1090" y="624" type="line"/>
      <point x="1090" y="635" type="line"/>
      <point x="1295" y="635"/>
      <point x="1541" y="780"/>
      <point x="1541" y="1117" type="curve" smooth="yes"/>
      <point x="1541" y="1154" type="line"/>
      <point x="1502" y="1154" type="line"/>
      <point x="1502" y="1119" type="line" smooth="yes"/>
      <point x="1502" y="806"/>
      <point x="1292" y="653"/>
      <point x="1001" y="653" type="curve"/>
      <point x="243" y="653" type="line"/>
      <point x="243" y="619" type="line"/>
      <point x="1001" y="619" type="line" smooth="yes"/>
      <point x="1261" y="619"/>
      <point x="1433" y="490"/>
      <point x="1433" y="321" type="curve" smooth="yes"/>
      <point x="1433" y="319" type="line" smooth="yes"/>
      <point x="1433" y="139"/>
      <point x="1297" y="8"/>
      <point x="955" y="8" type="curve" smooth="yes"/>
      <point x="476" y="8"/>
      <point x="257" y="249"/>
      <point x="257" y="775" type="curve"/>
      <point x="257" y="919" type="line" smooth="yes"/>
      <point x="257" y="1444"/>
      <point x="506" y="1638"/>
      <point x="913" y="1638" type="curve" smooth="yes"/>
      <point x="1299" y="1638"/>
      <point x="1502" y="1449"/>
      <point x="1502" y="1188" type="curve"/>
      <point x="1502" y="1170" type="line"/>
      <point x="1511" y="1170" type="line"/>
      <point x="1513" y="1173" type="line"/>
      <point x="1541" y="1185" type="line"/>
      <point x="1541" y="1188" type="line"/>
      <point x="1541" y="1468"/>
      <point x="1327" y="1673"/>
      <point x="913" y="1673" type="curve" smooth="yes"/>
      <point x="485" y="1673"/>
      <point x="220" y="1469"/>
      <point x="220" y="919" type="curve" smooth="yes"/>
      <point x="220" y="775" type="line" smooth="yes"/>
      <point x="220" y="227"/>
      <point x="453" y="-27"/>
    </contour>
    <contour>
      <point x="1" y="1139" type="line"/>
      <point x="257" y="1139" type="line"/>
      <point x="259" y="1139" type="line"/>
      <point x="1518" y="1139" type="line"/>
      <point x="1524" y="1139" type="line"/>
      <point x="1721" y="1139" type="line"/>
      <point x="1721" y="1173" type="line"/>
      <point x="1" y="1173" type="line"/>
    </contour>
    <component base="_cap.shiro_left"/>
    <component base="_cap.shiro_right" xOffset="1530"/>
  </outline>
</glyph>
<glyph name="EkOnkar.gm" format="2">
  <advance width="3033"/>
  <unicode hex="0A74"/>
  <outline>
    <contour>
      <point x="2266" y="-27" type="curve" smooth="yes"/>
      <point x="2636" y="-27"/>
      <point x="2783" y="123"/>
      <point x="2783" y="315" type="curve" smooth="yes"/>
      <point x="2783" y="321" type="line" smooth="yes"/>
      <point x="2783" y="508"/>
      <point x="2607" y="641"/>
      <point x="2370" y="641" type="curve"/>
      <point x="2401" y="618" type="line"/>
      <point x="2401" y="635" type="line"/>
      <point x="2606" y="635"/>
      <point x="2852" y="785"/>
      <point x="2852" y="1117" type="curve" smooth="yes"/>
      <point x="2852" y="1144" type="line"/>
      <point x="2813" y="1144" type="line"/>
      <point x="2813" y="1119" type="line" smooth="yes"/>
      <point x="2813" y="806"/>
      <point x="2603" y="653"/>
      <point x="2312" y="653" type="curve" smooth="yes"/>
      <point x="1554" y="653" type="line"/>
      <point x="1554" y="619" type="line"/>
      <point x="2312" y="619" type="line" smooth="yes"/>
      <point x="2572" y="619"/>
      <point x="2744" y="490"/>
      <point x="2744" y="321" type="curve" smooth="yes"/>
      <point x="2744" y="319" type="line" smooth="yes"/>
      <point x="2744" y="139"/>
      <point x="2608" y="8"/>
      <point x="2266" y="8" type="curve" smooth="yes"/>
      <point x="1854" y="8"/>
      <point x="1568" y="181"/>
      <point x="1568" y="775" type="curve" smooth="yes"/>
      <point x="1568" y="919" type="line" smooth="yes"/>
      <point x="1568" y="1444"/>
      <point x="1842" y="1638"/>
      <point x="2290" y="1638" type="curve" smooth="yes"/>
      <point x="2425" y="1638"/>
      <point x="2532" y="1616"/>
      <point x="2638" y="1584" type="curve"/>
      <point x="2631" y="1619" type="line"/>
      <point x="2527" y="1654"/>
      <point x="2412" y="1673"/>
      <point x="2290" y="1673" type="curve" smooth="yes"/>
      <point x="1822" y="1673"/>
      <point x="1531" y="1469"/>
      <point x="1531" y="919" type="curve" smooth="yes"/>
      <point x="1531" y="775" type="line" smooth="yes"/>
      <point x="1531" y="166"/>
      <point x="1827" y="-27"/>
    </contour>
    <contour>
      <point x="1566" y="1139" type="line"/>
      <point x="1569" y="1139" type="line"/>
      <point x="1572" y="1139" type="line"/>
      <point x="2832" y="1139" type="line"/>
      <point x="2836" y="1139" type="line"/>
      <point x="3011" y="1139" type="line"/>
      <point x="3011" y="1173" type="line"/>
      <point x="1572" y="1173" type="line"/>
    </contour>
    <contour>
      <point x="2638" y="1584" type="line"/>
      <point x="2638" y="1617" type="line" smooth="yes"/>
      <point x="2638" y="1831"/>
      <point x="2821" y="2017"/>
      <point x="3139" y="2016" type="curve"/>
      <point x="3239" y="2016"/>
      <point x="3316" y="2000"/>
      <point x="3397" y="1977" type="curve"/>
      <point x="3390" y="2012" type="line"/>
      <point x="3311" y="2037"/>
      <point x="3229" y="2051"/>
      <point x="3139" y="2051" type="curve"/>
      <point x="2800" y="2051"/>
      <point x="2601" y="1856"/>
      <point x="2601" y="1617" type="curve" smooth="yes"/>
      <point x="2601" y="1601" type="line"/>
    </contour>
    <component base="one.gm"/>
    <component base="_cap.shiro_right" xOffset="2832"/>
  </outline>
</glyph>
<glyph name="Yakash.gm" format="2">
  <unicode hex="0A75"/>
  <anchor x="800" y="100" name="_bottom"/>
  <anchor x="690" y="300" name="bottom1"/>
  <outline>
    <contour>
      <point x="721" y="-516" type="curve" smooth="yes"/>
      <point x="918" y="-516"/>
      <point x="1034" y="-424"/>
      <point x="1034" y="-239" type="curve"/>
      <point x="997" y="-239" type="line"/>
      <point x="997" y="-405"/>
      <point x="882" y="-482"/>
      <point x="721" y="-482" type="curve" smooth="yes"/>
      <point x="553" y="-482"/>
      <point x="433" y="-399"/>
      <point x="433" y="-219" type="curve" smooth="yes"/>
      <point x="433" y="18" type="line"/>
      <point x="396" y="18" type="line"/>
      <point x="396" y="-219" type="line" smooth="yes"/>
      <point x="396" y="-417"/>
      <point x="517" y="-516"/>
    </contour>
  </outline>
</glyph>
<glyph name="Khanda.gm" format="2">
  <advance width="1782"/>
  <unicode hex="262C"/>
  <outline>
    <contour>
      <point x="801" y="2" type="line"/>
      <point x="979" y="2" type="line"/>
      <point x="931" y="203" type="line"/>
      <point x="1111" y="59" type="line"/>
      <point x="1226" y="157" type="line"/>
      <point x="972" y="262" type="line"/>
      <point x="1194" y="262"/>
      <point x="1604" y="436"/>
      <point x="1604" y="840" type="curve" smooth="yes"/>
      <point x="1604" y="1056"/>
      <point x="1474" y="1207"/>
      <point x="1296" y="1223" type="curve"/>
      <point x="1353" y="1153"/>
      <point x="1399" y="1052"/>
      <point x="1399" y="895" type="curve" smooth="yes"/>
      <point x="1399" y="507"/>
      <point x="1107" y="367"/>
      <point x="927" y="349" type="curve"/>
      <point x="927" y="413" type="line"/>
      <point x="1045" y="486" type="line"/>
      <point x="997" y="619"/>
      <point x="974" y="758"/>
      <point x="974" y="895" type="curve" smooth="yes"/>
      <point x="974" y="1041"/>
      <point x="1000" y="1187"/>
      <point x="1054" y="1330" type="curve"/>
      <point x="897" y="1481" type="line"/>
      <point x="735" y="1330" type="line"/>
      <point x="790" y="1187"/>
      <point x="819" y="1040"/>
      <point x="819" y="892" type="curve" smooth="yes"/>
      <point x="819" y="755"/>
      <point x="796" y="618"/>
      <point x="748" y="486" type="curve"/>
      <point x="851" y="418" type="line"/>
      <point x="851" y="349" type="line"/>
      <point x="671" y="367"/>
      <point x="383" y="507"/>
      <point x="383" y="895" type="curve" smooth="yes"/>
      <point x="383" y="1052"/>
      <point x="429" y="1153"/>
      <point x="486" y="1223" type="curve"/>
      <point x="308" y="1207"/>
      <point x="178" y="1056"/>
      <point x="178" y="840" type="curve" smooth="yes"/>
      <point x="178" y="436"/>
      <point x="584" y="262"/>
      <point x="806" y="262" type="curve"/>
      <point x="554" y="157" type="line"/>
      <point x="668" y="59" type="line"/>
      <point x="847" y="203" type="line"/>
    </contour>
    <contour>
      <point x="895" y="546" type="curve" smooth="yes"/>
      <point x="1137" y="546"/>
      <point x="1292" y="685"/>
      <point x="1292" y="911" type="curve" smooth="yes"/>
      <point x="1292" y="1137"/>
      <point x="1137" y="1274"/>
      <point x="895" y="1274" type="curve" smooth="yes"/>
      <point x="651" y="1274"/>
      <point x="497" y="1137"/>
      <point x="497" y="911" type="curve" smooth="yes"/>
      <point x="497" y="685"/>
      <point x="651" y="546"/>
    </contour>
    <contour>
      <point x="895" y="591" type="curve" smooth="yes"/>
      <point x="726" y="591"/>
      <point x="650" y="703"/>
      <point x="650" y="911" type="curve" smooth="yes"/>
      <point x="650" y="1118"/>
      <point x="726" y="1230"/>
      <point x="895" y="1230" type="curve" smooth="yes"/>
      <point x="1063" y="1230"/>
      <point x="1139" y="1118"/>
      <point x="1139" y="911" type="curve" smooth="yes"/>
      <point x="1139" y="703"/>
      <point x="1063" y="591"/>
    </contour>
  </outline>
</glyph>
<glyph name="Addak.gm.alt" format="2">
  <anchor x="600" y="1200" name="_top1"/>
  <outline>
    <contour>
      <point x="262" y="1413" type="curve" smooth="yes"/>
      <point x="413" y="1413"/>
      <point x="495" y="1495"/>
      <point x="506" y="1644" type="curve"/>
      <point x="476" y="1644" type="line"/>
      <point x="464" y="1518"/>
      <point x="394" y="1448"/>
      <point x="262" y="1448" type="curve" smooth="yes"/>
      <point x="130" y="1448"/>
      <point x="60" y="1518"/>
      <point x="48" y="1644" type="curve"/>
      <point x="18" y="1644" type="line"/>
      <point x="28" y="1495"/>
      <point x="111" y="1413"/>
    </contour>
  </outline>
</glyph>
<glyph name="AddakBindi.gm.alt" format="2">
  <anchor x="600" y="1200" name="_top1"/>
  <outline>
    <contour>
      <point x="262" y="1413" type="curve" smooth="yes"/>
      <point x="413" y="1413"/>
      <point x="497" y="1495"/>
      <point x="506" y="1644" type="curve"/>
      <point x="476" y="1644" type="line"/>
      <point x="465" y="1517"/>
      <point x="394" y="1448"/>
      <point x="262" y="1448" type="curve" smooth="yes"/>
      <point x="130" y="1448"/>
      <point x="60" y="1517"/>
      <point x="49" y="1644" type="curve"/>
      <point x="19" y="1644" type="line"/>
      <point x="27" y="1495"/>
      <point x="111" y="1413"/>
    </contour>
    <contour>
      <point x="263" y="1582" type="curve" smooth="yes"/>
      <point x="301" y="1582"/>
      <point x="316" y="1603"/>
      <point x="316" y="1629" type="curve" smooth="yes"/>
      <point x="316" y="1632" type="line" smooth="yes"/>
      <point x="316" y="1658"/>
      <point x="300" y="1679"/>
      <point x="263" y="1679" type="curve" smooth="yes"/>
      <point x="225" y="1679"/>
      <point x="209" y="1658"/>
      <point x="209" y="1632" type="curve" smooth="yes"/>
      <point x="209" y="1629" type="line" smooth="yes"/>
      <point x="209" y="1603"/>
      <point x="225" y="1582"/>
    </contour>
  </outline>
</glyph>
<glyph name="AddakBindiDist.gm" format="2">
  <anchor x="570" y="1200" name="_top"/>
  <outline>
    <contour>
      <point x="393.5" y="1631" type="curve" smooth="yes"/>
      <point x="434.9" y="1631"/>
      <point x="452" y="1653.5"/>
      <point x="452" y="1682.3" type="curve" smooth="yes"/>
      <point x="452" y="1685" type="line" smooth="yes"/>
      <point x="452" y="1713.8"/>
      <point x="434" y="1736.3"/>
      <point x="393.5" y="1736.3" type="curve" smooth="yes"/>
      <point x="353" y="1736.3"/>
      <point x="335" y="1713.8"/>
      <point x="335" y="1685" type="curve" smooth="yes"/>
      <point x="335" y="1682.3" type="line" smooth="yes"/>
      <point x="335" y="1653.5"/>
      <point x="353" y="1631"/>
    </contour>
    <contour>
      <point x="391" y="1390" type="curve" smooth="yes"/>
      <point x="591" y="1390"/>
      <point x="699" y="1500"/>
      <point x="712" y="1698" type="curve"/>
      <point x="680" y="1698" type="line"/>
      <point x="664" y="1523"/>
      <point x="571" y="1425"/>
      <point x="391" y="1425" type="curve" smooth="yes"/>
      <point x="211" y="1425"/>
      <point x="117" y="1523"/>
      <point x="102" y="1698" type="curve"/>
      <point x="70" y="1698" type="line"/>
      <point x="84" y="1500"/>
      <point x="191" y="1390"/>
    </contour>
  </outline>
</glyph>
<glyph name="AddakDist.gm" format="2">
  <anchor x="570" y="1200" name="_top"/>
  <outline>
    <contour>
      <point x="391" y="1390" type="curve" smooth="yes"/>
      <point x="591" y="1390"/>
      <point x="699" y="1500"/>
      <point x="712" y="1698" type="curve"/>
      <point x="680" y="1698" type="line"/>
      <point x="664" y="1523"/>
      <point x="571" y="1425"/>
      <point x="391" y="1425" type="curve" smooth="yes"/>
      <point x="211" y="1425"/>
      <point x="117" y="1523"/>
      <point x="102" y="1698" type="curve"/>
      <point x="70" y="1698" type="line"/>
      <point x="84" y="1500"/>
      <point x="191" y="1390"/>
    </contour>
  </outline>
</glyph>
<glyph name="AddhaMa.gm" format="2">
  <advance width="1483"/>
  <anchor x="1420" y="100" name="bottom1"/>
  <anchor x="1365" y="1200" name="top"/>
  <outline>
    <contour>
      <point x="96" y="520" type="line"/>
      <point x="1196" y="520" type="line"/>
      <point x="1196" y="554" type="line"/>
      <point x="96" y="554" type="line"/>
    </contour>
    <component base="_danda" xOffset="1001"/>
  </outline>
</glyph>
<glyph name="AddhaTha.gm" format="2">
  <advance width="1458"/>
  <anchor x="1400" y="100" name="bottom1"/>
  <anchor x="1341" y="1200" name="top"/>
  <outline>
    <contour>
      <point x="625" y="257" type="curve" smooth="yes"/>
      <point x="821" y="257"/>
      <point x="1012" y="280"/>
      <point x="1164" y="324" type="curve"/>
      <point x="1164" y="359" type="line"/>
      <point x="1012" y="315"/>
      <point x="821" y="292"/>
      <point x="625" y="292" type="curve" smooth="yes"/>
      <point x="444" y="292"/>
      <point x="259" y="315"/>
      <point x="106" y="359" type="curve"/>
      <point x="106" y="324" type="line"/>
      <point x="259" y="280"/>
      <point x="444" y="257"/>
    </contour>
    <contour>
      <point x="20" y="1139" type="line"/>
      <point x="1180" y="1139" type="line"/>
      <point x="1180" y="1173" type="line"/>
      <point x="20" y="1173" type="line"/>
    </contour>
    <component base="_danda" xOffset="976"/>
    <component base="_cap.shiro_left"/>
  </outline>
</glyph>
<glyph name="AddhaYa.gm" format="2">
  <advance width="1668"/>
  <anchor x="1500" y="100" name="bottom1"/>
  <anchor x="1551" y="1200" name="top"/>
  <outline>
    <contour>
      <point x="484" y="204" type="curve" smooth="yes"/>
      <point x="569" y="204"/>
      <point x="665" y="219"/>
      <point x="762" y="248" type="curve"/>
      <point x="762" y="698" type="line"/>
      <point x="1384" y="698" type="line"/>
      <point x="1384" y="732" type="line"/>
      <point x="725" y="732" type="line"/>
      <point x="725" y="255" type="line"/>
      <point x="749" y="282" type="line"/>
      <point x="673" y="254"/>
      <point x="582" y="239"/>
      <point x="484" y="239" type="curve" smooth="yes"/>
      <point x="318" y="239"/>
      <point x="181" y="274"/>
      <point x="79" y="342" type="curve"/>
      <point x="79" y="301" type="line"/>
      <point x="187" y="237"/>
      <point x="324" y="204"/>
    </contour>
    <contour>
      <point x="20" y="1139" type="line"/>
      <point x="1387" y="1139" type="line"/>
      <point x="1387" y="1173" type="line"/>
      <point x="20" y="1173" type="line"/>
    </contour>
    <component base="_danda" xOffset="1186"/>
    <component base="_cap.shiro_left"/>
  </outline>
</glyph>
<glyph name="Bindi.gm.alt" format="2">
  <anchor x="595" y="1200" name="_top1"/>
  <outline>
    <contour>
      <point x="144" y="1541" type="curve" smooth="yes"/>
      <point x="185" y="1541"/>
      <point x="202" y="1564"/>
      <point x="202" y="1592" type="curve" smooth="yes"/>
      <point x="202" y="1595" type="line" smooth="yes"/>
      <point x="202" y="1624"/>
      <point x="184" y="1646"/>
      <point x="144" y="1646" type="curve" smooth="yes"/>
      <point x="103" y="1646"/>
      <point x="85" y="1624"/>
      <point x="85" y="1595" type="curve" smooth="yes"/>
      <point x="85" y="1592" type="line" smooth="yes"/>
      <point x="85" y="1564"/>
      <point x="103" y="1541"/>
    </contour>
  </outline>
</glyph>
<glyph name="KaViramaRa.gm" format="2">
  <advance width="1630"/>
  <anchor x="1608" y="-303" name="bottom"/>
  <anchor x="1677" y="-258" name="bottom1"/>
  <anchor x="1639" y="1200" name="top"/>
  <outline>
    <contour>
      <point x="916" y="-288" type="line"/>
      <point x="1416" y="-288" type="line"/>
      <point x="1442" y="-275" type="line"/>
      <point x="1455" y="-230"/>
      <point x="1461" y="-168"/>
      <point x="1461" y="-97" type="curve"/>
      <point x="1461" y="-61" type="line"/>
      <point x="1461" y="266"/>
      <point x="1346" y="442"/>
      <point x="1232" y="588" type="curve"/>
      <point x="1231" y="593" type="line"/>
      <point x="1072" y="772"/>
      <point x="874" y="886"/>
      <point x="590" y="886" type="curve" smooth="yes"/>
      <point x="299" y="886"/>
      <point x="144" y="770"/>
      <point x="144" y="571" type="curve" smooth="yes"/>
      <point x="144" y="566" type="line" smooth="yes"/>
      <point x="144" y="365"/>
      <point x="301" y="255"/>
      <point x="589" y="255" type="curve" smooth="yes"/>
      <point x="855" y="255"/>
      <point x="1067" y="352"/>
      <point x="1230" y="560" type="curve"/>
      <point x="1232" y="562" type="line"/>
      <point x="1333" y="692"/>
      <point x="1404" y="845"/>
      <point x="1456" y="1040" type="curve" smooth="yes"/>
      <point x="1486" y="1153" type="line"/>
      <point x="1447" y="1153" type="line"/>
      <point x="1419" y="1042" type="line" smooth="yes"/>
      <point x="1374" y="862"/>
      <point x="1295" y="708"/>
      <point x="1208" y="590" type="curve"/>
      <point x="1207" y="588" type="line"/>
      <point x="1037" y="377"/>
      <point x="836" y="290"/>
      <point x="589" y="290" type="curve" smooth="yes"/>
      <point x="324" y="290"/>
      <point x="183" y="392"/>
      <point x="183" y="568" type="curve" smooth="yes"/>
      <point x="183" y="570" type="line" smooth="yes"/>
      <point x="183" y="743"/>
      <point x="321" y="851"/>
      <point x="589" y="851" type="curve" smooth="yes"/>
      <point x="872" y="851"/>
      <point x="1074" y="724"/>
      <point x="1205" y="563" type="curve"/>
      <point x="1209" y="561" type="line"/>
      <point x="1321" y="413"/>
      <point x="1424" y="235"/>
      <point x="1424" y="-61" type="curve"/>
      <point x="1424" y="-97" type="line"/>
      <point x="1424" y="-163"/>
      <point x="1416" y="-236"/>
      <point x="1403" y="-272" type="curve"/>
      <point x="1426" y="-254" type="line"/>
      <point x="927" y="-254" type="line"/>
    </contour>
    <contour>
      <point x="1877" y="-644" type="curve"/>
      <point x="1866" y="-589" type="line"/>
      <point x="1750" y="-491"/>
      <point x="1579" y="-358"/>
      <point x="1429" y="-256" type="curve"/>
      <point x="1406" y="-284" type="line"/>
      <point x="1559" y="-388"/>
      <point x="1750" y="-533"/>
    </contour>
    <contour>
      <point x="17" y="1139" type="line"/>
      <point x="1683" y="1139" type="line"/>
      <point x="1683" y="1173" type="line"/>
      <point x="17" y="1173" type="line"/>
    </contour>
    <component base="_cap.shiro_left"/>
    <component base="_cap.shiro_right" xOffset="1482"/>
  </outline>
</glyph>
<glyph name="MatraAi.gm.alt" format="2">
  <anchor x="600" y="1200" name="_top"/>
  <anchor x="908" y="1362" name="top1"/>
  <outline>
    <contour>
      <point x="407" y="1169" type="line"/>
      <point x="433" y="1169" type="line"/>
      <point x="431" y="1205" type="line" smooth="yes"/>
      <point x="408" y="1628"/>
      <point x="255" y="1819"/>
      <point x="-182" y="1819" type="curve" smooth="yes"/>
      <point x="-274" y="1819"/>
      <point x="-361" y="1805"/>
      <point x="-469" y="1782" type="curve"/>
      <point x="-469" y="1747" type="line"/>
      <point x="-359" y="1770"/>
      <point x="-273" y="1784"/>
      <point x="-182" y="1784" type="curve" smooth="yes"/>
      <point x="225" y="1784"/>
      <point x="364" y="1600"/>
      <point x="401" y="1284" type="curve"/>
      <point x="395" y="1282" type="line"/>
    </contour>
    <contour>
      <point x="396" y="1169" type="line"/>
      <point x="422" y="1169" type="line"/>
      <point x="415" y="1210" type="line" smooth="yes"/>
      <point x="384" y="1389"/>
      <point x="242" y="1512"/>
      <point x="-109" y="1511" type="curve" smooth="yes"/>
      <point x="-200" y="1511"/>
      <point x="-272" y="1499"/>
      <point x="-370" y="1483" type="curve"/>
      <point x="-370" y="1448" type="line"/>
      <point x="-269" y="1464"/>
      <point x="-197" y="1476"/>
      <point x="-107" y="1476" type="curve" smooth="yes"/>
      <point x="229" y="1476"/>
      <point x="381" y="1350"/>
      <point x="395" y="1181" type="curve" smooth="yes"/>
    </contour>
  </outline>
</glyph>
<glyph name="MatraAu.gm.alt" format="2">
  <anchor x="600" y="1200" name="_top"/>
  <anchor x="1127" y="1461" name="top1"/>
  <outline>
    <contour>
      <point x="182" y="1351" type="curve"/>
      <point x="213" y="1351" type="line"/>
      <point x="186" y="1387"/>
      <point x="171" y="1430"/>
      <point x="171" y="1471" type="curve" smooth="yes"/>
      <point x="171" y="1593"/>
      <point x="278" y="1661"/>
      <point x="404" y="1661" type="curve" smooth="yes"/>
      <point x="542" y="1661"/>
      <point x="637" y="1593"/>
      <point x="637" y="1471" type="curve" smooth="yes"/>
      <point x="637" y="1430"/>
      <point x="622" y="1388"/>
      <point x="594" y="1351" type="curve"/>
      <point x="625" y="1351" type="line"/>
      <point x="654" y="1387"/>
      <point x="670" y="1431"/>
      <point x="670" y="1475" type="curve" smooth="yes"/>
      <point x="670" y="1616"/>
      <point x="560" y="1696"/>
      <point x="404" y="1696" type="curve" smooth="yes"/>
      <point x="369" y="1696"/>
      <point x="327" y="1690"/>
      <point x="291" y="1679" type="curve"/>
      <point x="291" y="1673" type="line"/>
      <point x="201" y="1650"/>
      <point x="138" y="1575"/>
      <point x="138" y="1475" type="curve" smooth="yes"/>
      <point x="138" y="1432"/>
      <point x="153" y="1387"/>
    </contour>
    <contour>
      <point x="112" y="1663" type="curve" smooth="yes"/>
      <point x="181" y="1663"/>
      <point x="238" y="1666"/>
      <point x="277" y="1673" type="curve"/>
      <point x="281" y="1663" type="line"/>
      <point x="333" y="1663" type="line"/>
      <point x="404" y="1696" type="line"/>
      <point x="125" y="1696" type="line" smooth="yes"/>
      <point x="-23" y="1696"/>
      <point x="-130" y="1733"/>
      <point x="-149" y="1906" type="curve"/>
      <point x="-178" y="1906" type="line"/>
      <point x="-175" y="1881" type="line" smooth="yes"/>
      <point x="-156" y="1720"/>
      <point x="-43" y="1663"/>
    </contour>
  </outline>
</glyph>
<glyph name="MatraEe.gm.alt" format="2">
  <anchor x="600" y="1200" name="_top"/>
  <anchor x="808" y="1348" name="top1"/>
  <outline>
    <contour>
      <point x="398" y="1159" type="line"/>
      <point x="432" y="1159" type="line"/>
      <point x="359" y="1477"/>
      <point x="242" y="1670"/>
      <point x="-114" y="1670" type="curve"/>
      <point x="-176" y="1670"/>
      <point x="-216" y="1666"/>
      <point x="-277" y="1657" type="curve"/>
      <point x="-285" y="1620" type="line"/>
      <point x="-225" y="1631"/>
      <point x="-173" y="1635"/>
      <point x="-113" y="1635" type="curve"/>
      <point x="214" y="1635"/>
      <point x="322" y="1461"/>
      <point x="395" y="1171" type="curve" smooth="yes"/>
    </contour>
  </outline>
</glyph>
<glyph name="MatraEeTa.gm" format="2">
  <anchor x="600" y="1200" name="_top"/>
  <anchor x="768" y="1348" name="top1"/>
  <outline>
    <contour>
      <point x="398" y="1159" type="line"/>
      <point x="432" y="1159" type="line"/>
      <point x="364" y="1482"/>
      <point x="160" y="1680"/>
      <point x="-337" y="1680" type="curve"/>
      <point x="-422" y="1680"/>
      <point x="-478" y="1676"/>
      <point x="-563" y="1667" type="curve"/>
      <point x="-574" y="1630" type="line"/>
      <point x="-491" y="1641"/>
      <point x="-418" y="1645"/>
      <point x="-335" y="1645" type="curve"/>
      <point x="129" y="1645"/>
      <point x="322" y="1465"/>
      <point x="395" y="1171" type="curve" smooth="yes"/>
    </contour>
  </outline>
</glyph>
<glyph name="MatraIiBindi.gm" format="2">
  <advance width="571"/>
  <anchor x="838" y="1348" name="top1"/>
  <outline>
    <contour>
      <point x="387" y="1689" type="curve" smooth="yes"/>
      <point x="428" y="1689"/>
      <point x="445" y="1712"/>
      <point x="445" y="1740" type="curve" smooth="yes"/>
      <point x="445" y="1743" type="line" smooth="yes"/>
      <point x="445" y="1772"/>
      <point x="427" y="1794"/>
      <point x="387" y="1794" type="curve" smooth="yes"/>
      <point x="346" y="1794"/>
      <point x="328" y="1772"/>
      <point x="328" y="1743" type="curve" smooth="yes"/>
      <point x="328" y="1740" type="line" smooth="yes"/>
      <point x="328" y="1712"/>
      <point x="346" y="1689"/>
    </contour>
    <component base="MatraIi.gm"/>
  </outline>
</glyph>
<glyph name="MatraOo.gm.alt" format="2">
  <anchor x="600" y="1200" name="_top"/>
  <anchor x="816" y="1344" name="top1"/>
  <outline>
    <contour>
      <point x="396" y="1159" type="curve"/>
      <point x="433" y="1159" type="line"/>
      <point x="433" y="1161"/>
      <point x="433" y="1162"/>
      <point x="433" y="1164" type="curve" smooth="yes"/>
      <point x="433" y="1386"/>
      <point x="346" y="1463"/>
      <point x="122" y="1497" type="curve" smooth="yes"/>
      <point x="42" y="1509" type="line" smooth="yes"/>
      <point x="-119" y="1533"/>
      <point x="-242" y="1581"/>
      <point x="-242" y="1780" type="curve"/>
      <point x="-271" y="1780" type="line"/>
      <point x="-271" y="1758" type="line" smooth="yes"/>
      <point x="-271" y="1565"/>
      <point x="-151" y="1504"/>
      <point x="47" y="1474" type="curve" smooth="yes"/>
      <point x="125" y="1462" type="line" smooth="yes"/>
      <point x="309" y="1434"/>
      <point x="396" y="1379"/>
    </contour>
  </outline>
</glyph>
<glyph name="MatraU.gm.alt" format="2">
  <anchor x="600" y="100" name="_bottom1"/>
  <outline>
    <contour>
      <point x="-13" y="-948" type="curve" smooth="yes"/>
      <point x="126" y="-948"/>
      <point x="285" y="-914"/>
      <point x="394" y="-846" type="curve"/>
      <point x="398" y="-812" type="line"/>
      <point x="289" y="-880"/>
      <point x="140" y="-914"/>
      <point x="-8" y="-914" type="curve" smooth="yes"/>
      <point x="-148" y="-914"/>
      <point x="-309" y="-880"/>
      <point x="-413" y="-812" type="curve"/>
      <point x="-409" y="-846" type="line"/>
      <point x="-309" y="-914"/>
      <point x="-152" y="-948"/>
    </contour>
  </outline>
</glyph>
<glyph name="MatraUu.gm.alt" format="2">
  <anchor x="600" y="100" name="_bottom1"/>
  <outline>
    <contour>
      <point x="-24" y="-951" type="curve" smooth="yes"/>
      <point x="115" y="-951"/>
      <point x="274" y="-917"/>
      <point x="383" y="-849" type="curve"/>
      <point x="387" y="-815" type="line"/>
      <point x="278" y="-883"/>
      <point x="129" y="-917"/>
      <point x="-19" y="-917" type="curve" smooth="yes"/>
      <point x="-159" y="-917"/>
      <point x="-320" y="-883"/>
      <point x="-424" y="-815" type="curve"/>
      <point x="-420" y="-849" type="line"/>
      <point x="-320" y="-917"/>
      <point x="-163" y="-951"/>
    </contour>
    <contour>
      <point x="-24" y="-1176" type="curve" smooth="yes"/>
      <point x="115" y="-1176"/>
      <point x="274" y="-1142"/>
      <point x="383" y="-1074" type="curve"/>
      <point x="387" y="-1040" type="line"/>
      <point x="278" y="-1108"/>
      <point x="129" y="-1142"/>
      <point x="-19" y="-1142" type="curve" smooth="yes"/>
      <point x="-159" y="-1142"/>
      <point x="-320" y="-1108"/>
      <point x="-424" y="-1040" type="curve"/>
      <point x="-420" y="-1074" type="line"/>
      <point x="-320" y="-1141"/>
      <point x="-163" y="-1176"/>
    </contour>
  </outline>
</glyph>
<glyph name="NaHa.gm" format="2">
  <advance width="1592"/>
  <anchor x="1420" y="-520" name="bottom1"/>
  <anchor x="995" y="1200" name="top"/>
  <outline>
    <contour>
      <point x="356" y="0" type="curve"/>
      <point x="420" y="0" type="line"/>
      <point x="417" y="2" type="line"/>
      <point x="270" y="94"/>
      <point x="193" y="215"/>
      <point x="193" y="356" type="curve" smooth="yes"/>
      <point x="193" y="357" type="line" smooth="yes"/>
      <point x="193" y="587"/>
      <point x="441" y="728"/>
      <point x="809" y="813" type="curve"/>
      <point x="1167" y="728"/>
      <point x="1425" y="587"/>
      <point x="1425" y="357" type="curve" smooth="yes"/>
      <point x="1425" y="356" type="line"/>
      <point x="1425" y="217"/>
      <point x="1353" y="100"/>
      <point x="1216" y="13" type="curve"/>
      <point x="1216" y="0" type="line"/>
      <point x="1253" y="0" type="line"/>
      <point x="1395" y="94"/>
      <point x="1464" y="215"/>
      <point x="1464" y="352" type="curve" smooth="yes"/>
      <point x="1464" y="359" type="line" smooth="yes"/>
      <point x="1464" y="601"/>
      <point x="1196" y="764"/>
      <point x="809" y="849" type="curve"/>
      <point x="412" y="764"/>
      <point x="154" y="601"/>
      <point x="154" y="359" type="curve" smooth="yes"/>
      <point x="154" y="356" type="line" smooth="yes"/>
      <point x="154" y="213"/>
      <point x="223" y="91"/>
    </contour>
    <contour>
      <point x="791" y="826" type="line"/>
      <point x="828" y="826" type="line"/>
      <point x="828" y="1156" type="line"/>
      <point x="791" y="1156" type="line"/>
    </contour>
    <contour>
      <point x="23" y="1139" type="line"/>
      <point x="1579" y="1139" type="line"/>
      <point x="1579" y="1173" type="line"/>
      <point x="23" y="1173" type="line"/>
    </contour>
    <contour>
      <point x="806" y="-703" type="curve" smooth="yes"/>
      <point x="1100" y="-703"/>
      <point x="1253" y="-593"/>
      <point x="1253" y="-381" type="curve" smooth="yes"/>
      <point x="1253" y="0" type="line"/>
      <point x="1216" y="0" type="line"/>
      <point x="1216" y="-381" type="line" smooth="yes"/>
      <point x="1216" y="-570"/>
      <point x="1075" y="-669"/>
      <point x="806" y="-669" type="curve" smooth="yes"/>
      <point x="529" y="-669"/>
      <point x="345" y="-567"/>
      <point x="345" y="-413" type="curve" smooth="yes"/>
      <point x="345" y="-409" type="line" smooth="yes"/>
      <point x="345" y="-305"/>
      <point x="435" y="-235"/>
      <point x="569" y="-235" type="curve" smooth="yes"/>
      <point x="911" y="-235" type="line"/>
      <point x="911" y="-201" type="line"/>
      <point x="569" y="-201" type="line" smooth="yes"/>
      <point x="412" y="-201"/>
      <point x="307" y="-285"/>
      <point x="307" y="-408" type="curve" smooth="yes"/>
      <point x="307" y="-413" type="line" smooth="yes"/>
      <point x="307" y="-587"/>
      <point x="506" y="-703"/>
    </contour>
    <component base="_cap.shiro_left"/>
    <component base="_cap.shiro_right" xOffset="1391"/>
  </outline>
</glyph>
<glyph name="NaViramaRa.gm" format="2">
  <advance width="1592"/>
  <anchor x="1370" y="-303" name="bottom"/>
  <anchor x="1439" y="-258" name="bottom1"/>
  <anchor x="995" y="1200" name="top"/>
  <outline>
    <contour>
      <point x="356" y="0" type="curve"/>
      <point x="420" y="0" type="line"/>
      <point x="417" y="2" type="line"/>
      <point x="270" y="94"/>
      <point x="193" y="215"/>
      <point x="193" y="356" type="curve" smooth="yes"/>
      <point x="193" y="357" type="line" smooth="yes"/>
      <point x="193" y="587"/>
      <point x="441" y="728"/>
      <point x="809" y="813" type="curve"/>
      <point x="1167" y="728"/>
      <point x="1425" y="587"/>
      <point x="1425" y="357" type="curve" smooth="yes"/>
      <point x="1425" y="356" type="line"/>
      <point x="1425" y="217"/>
      <point x="1361" y="112"/>
      <point x="1216" y="20" type="curve"/>
      <point x="1216" y="0" type="line"/>
      <point x="1253" y="0" type="line"/>
      <point x="1386" y="94"/>
      <point x="1464" y="215"/>
      <point x="1464" y="352" type="curve" smooth="yes"/>
      <point x="1464" y="359" type="line" smooth="yes"/>
      <point x="1464" y="601"/>
      <point x="1196" y="764"/>
      <point x="809" y="849" type="curve"/>
      <point x="412" y="764"/>
      <point x="154" y="601"/>
      <point x="154" y="359" type="curve" smooth="yes"/>
      <point x="154" y="356" type="line" smooth="yes"/>
      <point x="154" y="213"/>
      <point x="223" y="91"/>
    </contour>
    <contour>
      <point x="791" y="826" type="line"/>
      <point x="828" y="826" type="line"/>
      <point x="828" y="1156" type="line"/>
      <point x="791" y="1156" type="line"/>
    </contour>
    <contour>
      <point x="23" y="1139" type="line"/>
      <point x="1579" y="1139" type="line"/>
      <point x="1579" y="1173" type="line"/>
      <point x="23" y="1173" type="line"/>
    </contour>
    <contour>
      <point x="1639" y="-644" type="curve"/>
      <point x="1628" y="-589" type="line"/>
      <point x="1512" y="-491"/>
      <point x="1341" y="-358"/>
      <point x="1191" y="-256" type="curve"/>
      <point x="1168" y="-284" type="line"/>
      <point x="1321" y="-388"/>
      <point x="1512" y="-533"/>
    </contour>
    <contour>
      <point x="678" y="-288" type="line"/>
      <point x="1178" y="-288" type="line"/>
      <point x="1204" y="-275" type="line"/>
      <point x="1236" y="-213"/>
      <point x="1253" y="-128"/>
      <point x="1253" y="-27" type="curve" smooth="yes"/>
      <point x="1253" y="20" type="line"/>
      <point x="1216" y="20" type="line"/>
      <point x="1216" y="-27" type="line" smooth="yes"/>
      <point x="1216" y="-127"/>
      <point x="1199" y="-211"/>
      <point x="1166" y="-272" type="curve"/>
      <point x="1188" y="-254" type="line"/>
      <point x="689" y="-254" type="line"/>
    </contour>
    <component base="_cap.shiro_left"/>
    <component base="_cap.shiro_right" xOffset="1391"/>
  </outline>
</glyph>
<glyph name="Nukta.gm.001" format="2">
  <outline>
    <contour>
      <point x="-854" y="-172" type="curve" smooth="yes"/>
      <point x="-811" y="-172"/>
      <point x="-787" y="-151"/>
      <point x="-787" y="-112" type="curve" smooth="yes"/>
      <point x="-787" y="-109" type="line" smooth="yes"/>
      <point x="-787" y="-72"/>
      <point x="-811" y="-51"/>
      <point x="-854" y="-51" type="curve" smooth="yes"/>
      <point x="-895" y="-51"/>
      <point x="-920" y="-72"/>
      <point x="-920" y="-109" type="curve" smooth="yes"/>
      <point x="-920" y="-112" type="line" smooth="yes"/>
      <point x="-920" y="-151"/>
      <point x="-895" y="-172"/>
    </contour>
  </outline>
</glyph>
<glyph name="PairinHa.gm" format="2">
  <anchor x="800" y="100" name="_bottom"/>
  <anchor x="570" y="100" name="bottom1"/>
  <outline>
    <contour>
      <point x="-14" y="-703" type="curve" smooth="yes"/>
      <point x="280" y="-703"/>
      <point x="433" y="-593"/>
      <point x="433" y="-381" type="curve" smooth="yes"/>
      <point x="433" y="21" type="line"/>
      <point x="396" y="21" type="line"/>
      <point x="396" y="-381" type="line" smooth="yes"/>
      <point x="396" y="-570"/>
      <point x="255" y="-669"/>
      <point x="-14" y="-669" type="curve" smooth="yes"/>
      <point x="-291" y="-669"/>
      <point x="-475" y="-567"/>
      <point x="-475" y="-413" type="curve" smooth="yes"/>
      <point x="-475" y="-409" type="line" smooth="yes"/>
      <point x="-475" y="-305"/>
      <point x="-385" y="-235"/>
      <point x="-251" y="-235" type="curve" smooth="yes"/>
      <point x="91" y="-235" type="line"/>
      <point x="91" y="-201" type="line"/>
      <point x="-251" y="-201" type="line" smooth="yes"/>
      <point x="-408" y="-201"/>
      <point x="-513" y="-285"/>
      <point x="-513" y="-408" type="curve" smooth="yes"/>
      <point x="-513" y="-413" type="line" smooth="yes"/>
      <point x="-513" y="-587"/>
      <point x="-314" y="-703"/>
    </contour>
  </outline>
</glyph>
<glyph name="PairinRa.gm" format="2">
  <anchor x="800" y="100" name="_bottom"/>
  <anchor x="690" y="400" name="bottom1"/>
  <outline>
    <contour>
      <point x="819" y="-644" type="curve"/>
      <point x="808" y="-589" type="line"/>
      <point x="692" y="-491"/>
      <point x="521" y="-358"/>
      <point x="371" y="-256" type="curve"/>
      <point x="348" y="-284" type="line"/>
      <point x="501" y="-388"/>
      <point x="692" y="-533"/>
    </contour>
    <contour>
      <point x="-142" y="-288" type="line"/>
      <point x="358" y="-288" type="line"/>
      <point x="384" y="-275" type="line"/>
      <point x="416" y="-213"/>
      <point x="433" y="-128"/>
      <point x="433" y="-27" type="curve" smooth="yes"/>
      <point x="433" y="20" type="line"/>
      <point x="396" y="20" type="line"/>
      <point x="396" y="-27" type="line" smooth="yes"/>
      <point x="396" y="-127"/>
      <point x="379" y="-211"/>
      <point x="346" y="-272" type="curve"/>
      <point x="368" y="-254" type="line"/>
      <point x="-131" y="-254" type="line"/>
    </contour>
  </outline>
</glyph>
<glyph name="PairinVa.gm" format="2">
  <anchor x="800" y="100" name="_bottom"/>
  <anchor x="690" y="100" name="bottom1"/>
  <outline>
    <contour>
      <point x="-205" y="-420" type="curve"/>
      <point x="411" y="-420" type="line"/>
      <point x="411" y="-386" type="line"/>
      <point x="-205" y="-386" type="line" smooth="yes"/>
      <point x="-316" y="-386"/>
      <point x="-362" y="-336"/>
      <point x="-362" y="-259" type="curve" smooth="yes"/>
      <point x="-362" y="-188"/>
      <point x="-316" y="-140"/>
      <point x="-205" y="-140" type="curve" smooth="yes"/>
      <point x="433" y="-140" type="line"/>
      <point x="433" y="31" type="line"/>
      <point x="396" y="31" type="line"/>
      <point x="396" y="-106" type="line"/>
      <point x="-205" y="-106" type="line" smooth="yes"/>
      <point x="-340" y="-106"/>
      <point x="-400" y="-167"/>
      <point x="-400" y="-259" type="curve" smooth="yes"/>
      <point x="-400" y="-351"/>
      <point x="-340" y="-420"/>
    </contour>
    <contour>
      <point x="302" y="-723" type="curve" smooth="yes"/>
      <point x="347" y="-723"/>
      <point x="401" y="-715"/>
      <point x="446" y="-704" type="curve"/>
      <point x="455" y="-671" type="line"/>
      <point x="400" y="-686"/>
      <point x="332" y="-690"/>
      <point x="300" y="-690" type="curve" smooth="yes"/>
      <point x="139" y="-690"/>
      <point x="-27" y="-627"/>
      <point x="-72" y="-414" type="curve"/>
      <point x="-113" y="-414" type="line"/>
      <point x="-48" y="-668"/>
      <point x="131" y="-723"/>
    </contour>
  </outline>
</glyph>
<glyph name="Rha.gm" format="2">
  <advance width="1518"/>
  <anchor x="1132" y="-242" name="bottom"/>
  <anchor x="1480" y="-238" name="bottom1"/>
  <anchor x="1455" y="1200" name="top"/>
  <outline>
    <contour>
      <point x="21" y="1139" type="line"/>
      <point x="1518" y="1139" type="line"/>
      <point x="1518" y="1173" type="line"/>
      <point x="21" y="1173" type="line"/>
    </contour>
    <contour>
      <point x="533" y="-232" type="line"/>
      <point x="588" y="-232" type="line"/>
      <point x="157" y="167" type="line"/>
      <point x="107" y="167" type="line"/>
    </contour>
    <contour>
      <point x="1137" y="-403" type="curve" smooth="yes"/>
      <point x="1287" y="-403"/>
      <point x="1414" y="-348"/>
      <point x="1414" y="-219" type="curve" smooth="yes"/>
      <point x="1414" y="-149"/>
      <point x="1385" y="-103"/>
      <point x="1332" y="-42" type="curve" smooth="yes"/>
      <point x="1162" y="154" type="line"/>
      <point x="1132" y="135" type="line"/>
      <point x="1308" y="-67" type="line" smooth="yes"/>
      <point x="1351" y="-117"/>
      <point x="1375" y="-165"/>
      <point x="1375" y="-218" type="curve" smooth="yes"/>
      <point x="1375" y="-324"/>
      <point x="1268" y="-368"/>
      <point x="1136" y="-368" type="curve" smooth="yes"/>
      <point x="1014" y="-368"/>
      <point x="868" y="-321"/>
      <point x="868" y="-225" type="curve"/>
      <point x="868" y="-149"/>
      <point x="934" y="-108"/>
      <point x="1027" y="-104" type="curve"/>
      <point x="1011" y="-73" type="line"/>
      <point x="898" y="-84"/>
      <point x="830" y="-135"/>
      <point x="830" y="-224" type="curve"/>
      <point x="830" y="-343"/>
      <point x="989" y="-403"/>
    </contour>
    <contour>
      <point x="714" y="49" type="curve" smooth="yes"/>
      <point x="1097" y="49"/>
      <point x="1310" y="133"/>
      <point x="1310" y="366" type="curve" smooth="yes"/>
      <point x="1310" y="368" type="line" smooth="yes"/>
      <point x="1310" y="548"/>
      <point x="1171" y="683"/>
      <point x="875" y="683" type="curve"/>
      <point x="898" y="661" type="line"/>
      <point x="898" y="674" type="line"/>
      <point x="1132" y="670"/>
      <point x="1308" y="800"/>
      <point x="1308" y="1115" type="curve" smooth="yes"/>
      <point x="1308" y="1153" type="line"/>
      <point x="1269" y="1153" type="line"/>
      <point x="1269" y="1115" type="line" smooth="yes"/>
      <point x="1269" y="862"/>
      <point x="1140" y="693"/>
      <point x="864" y="693" type="curve" smooth="yes"/>
      <point x="228" y="693" type="line"/>
      <point x="228" y="659" type="line"/>
      <point x="864" y="659" type="line" smooth="yes"/>
      <point x="1136" y="659"/>
      <point x="1271" y="527"/>
      <point x="1271" y="368" type="curve" smooth="yes"/>
      <point x="1271" y="366" type="line" smooth="yes"/>
      <point x="1271" y="157"/>
      <point x="1073" y="84"/>
      <point x="714" y="84" type="curve" smooth="yes"/>
      <point x="463" y="84"/>
      <point x="251" y="128"/>
      <point x="97" y="212" type="curve"/>
      <point x="107" y="167" type="line"/>
      <point x="245" y="89"/>
      <point x="453" y="49"/>
    </contour>
    <component base="_cap.shiro_left"/>
    <component base="_cap.shiro_right" xOffset="1317"/>
  </outline>
</glyph>
<glyph name="TippiDist.gm" format="2">
  <anchor x="600" y="1200" name="_top"/>
  <outline>
    <contour>
      <point x="181" y="1330" type="curve"/>
      <point x="213" y="1330" type="line"/>
      <point x="187" y="1366"/>
      <point x="171" y="1413"/>
      <point x="171" y="1455" type="curve" smooth="yes"/>
      <point x="171" y="1577"/>
      <point x="265" y="1649"/>
      <point x="424" y="1649" type="curve" smooth="yes"/>
      <point x="583" y="1649"/>
      <point x="677" y="1577"/>
      <point x="677" y="1455" type="curve" smooth="yes"/>
      <point x="677" y="1414"/>
      <point x="661" y="1368"/>
      <point x="634" y="1330" type="curve"/>
      <point x="668" y="1330" type="line"/>
      <point x="694" y="1368"/>
      <point x="711" y="1415"/>
      <point x="713" y="1459" type="curve" smooth="yes"/>
      <point x="713" y="1601"/>
      <point x="606" y="1685"/>
      <point x="424" y="1685" type="curve" smooth="yes"/>
      <point x="243" y="1685"/>
      <point x="136" y="1601"/>
      <point x="136" y="1459" type="curve" smooth="yes"/>
      <point x="136" y="1414"/>
      <point x="153" y="1366"/>
    </contour>
  </outline>
</glyph>
<glyph name="Virama.gm.alt" format="2">
  <anchor x="800" y="100" name="_bottom1"/>
  <outline>
    <contour>
      <point x="485" y="-1093" type="line"/>
      <point x="524" y="-1093" type="line"/>
      <point x="319" y="-809" type="line"/>
      <point x="277" y="-809" type="line"/>
    </contour>
  </outline>
</glyph>
<glyph name="_EEmatra" format="2">
  <advance width="571"/>
  <anchor x="838" y="1348" name="top1"/>
  <outline>
    <contour>
      <point x="267" y="1169" type="line"/>
      <point x="304" y="1169" type="line"/>
      <point x="304" y="1324" type="line" smooth="yes"/>
      <point x="304" y="1554"/>
      <point x="204" y="1674"/>
      <point x="2" y="1674" type="curve" smooth="yes"/>
      <point x="-200" y="1674"/>
      <point x="-300" y="1553"/>
      <point x="-300" y="1324" type="curve" smooth="yes"/>
      <point x="-300" y="1310" type="line"/>
      <point x="-262" y="1310" type="line"/>
      <point x="-262" y="1324" type="line" smooth="yes"/>
      <point x="-262" y="1530"/>
      <point x="-172" y="1640"/>
      <point x="2" y="1640" type="curve" smooth="yes"/>
      <point x="176" y="1640"/>
      <point x="267" y="1531"/>
      <point x="267" y="1324" type="curve" smooth="yes"/>
    </contour>
    <contour>
      <point x="267" y="0" type="line"/>
      <point x="304" y="0" type="line"/>
      <point x="304" y="1146" type="line"/>
      <point x="267" y="1146" type="line"/>
    </contour>
    <contour>
      <point x="-70" y="1139" type="line"/>
      <point x="590" y="1139" type="line"/>
      <point x="601" y="1173" type="line"/>
      <point x="-59" y="1173" type="line"/>
    </contour>
  </outline>
</glyph>
<glyph name="_Ematra" format="2">
  <advance width="573"/>
  <outline>
    <contour>
      <point x="267" y="1169" type="line"/>
      <point x="304" y="1169" type="line"/>
      <point x="304" y="1324" type="line" smooth="yes"/>
      <point x="304" y="1531"/>
      <point x="395" y="1640"/>
      <point x="569" y="1640" type="curve" smooth="yes"/>
      <point x="743" y="1640"/>
      <point x="833" y="1530"/>
      <point x="833" y="1324" type="curve" smooth="yes"/>
      <point x="833" y="1310" type="line"/>
      <point x="871" y="1310" type="line"/>
      <point x="871" y="1324" type="line" smooth="yes"/>
      <point x="871" y="1553"/>
      <point x="771" y="1674"/>
      <point x="569" y="1674" type="curve" smooth="yes"/>
      <point x="367" y="1674"/>
      <point x="267" y="1554"/>
      <point x="267" y="1324" type="curve" smooth="yes"/>
    </contour>
    <contour>
      <point x="267" y="0" type="line"/>
      <point x="304" y="0" type="line"/>
      <point x="304" y="1146" type="line"/>
      <point x="267" y="1146" type="line"/>
    </contour>
    <contour>
      <point x="-30" y="1139" type="line"/>
      <point x="660" y="1139" type="line"/>
      <point x="671" y="1173" type="line"/>
      <point x="-19" y="1173" type="line"/>
    </contour>
  </outline>
</glyph>
<glyph name="_cap.shiro_left" format="2">
  <advance width="201"/>
  <outline>
    <contour>
      <point x="-30" y="1139" type="line"/>
      <point x="59" y="1139" type="line"/>
      <point x="59" y="1173" type="line"/>
      <point x="-19" y="1173" type="line"/>
    </contour>
  </outline>
</glyph>
<glyph name="_cap.shiro_right" format="2">
  <advance width="201"/>
  <outline>
    <contour>
      <point x="160" y="1139" type="line"/>
      <point x="220" y="1139" type="line"/>
      <point x="231" y="1173" type="line"/>
      <point x="160" y="1173" type="line"/>
    </contour>
  </outline>
</glyph>
<glyph name="_danda" format="2">
  <advance width="482"/>
  <outline>
    <contour>
      <point x="178" y="0" type="line"/>
      <point x="215" y="0" type="line"/>
      <point x="215" y="1139" type="line"/>
      <point x="472" y="1139" type="line"/>
      <point x="472" y="1173" type="line"/>
      <point x="178" y="1173" type="line"/>
    </contour>
    <component base="_cap.shiro_right" xOffset="286"/>
  </outline>
</glyph>
<glyph name="_danda001" format="2">
  <advance width="571"/>
  <outline>
    <contour>
      <point x="267" y="461" type="line"/>
      <point x="304" y="461" type="line"/>
      <point x="304" y="1164" type="line"/>
      <point x="267" y="1164" type="line"/>
    </contour>
    <contour>
      <point x="-30" y="1139" type="line"/>
      <point x="590" y="1139" type="line"/>
      <point x="601" y="1173" type="line"/>
      <point x="-19" y="1173" type="line"/>
    </contour>
  </outline>
</glyph>
<glyph name="_part.shiro" format="2">
  <advance width="1511"/>
  <outline>
    <contour>
      <point x="-30" y="1139" type="line"/>
      <point x="1530" y="1139" type="line"/>
      <point x="1541" y="1173" type="line"/>
      <point x="-19" y="1173" type="line"/>
    </contour>
  </outline>
</glyph>
<glyph name="acutecomb.narrow" format="2">
  <anchor x="114" y="952" name="_top"/>
  <anchor x="114" y="1321" name="top"/>
  <outline>
    <contour>
      <point x="278" y="1388" type="line"/>
      <point x="103" y="1114" type="line"/>
      <point x="103" y="1114" type="line"/>
      <point x="140" y="1114" type="line"/>
      <point x="323" y="1388" type="line"/>
      <point x="323" y="1388" type="line"/>
    </contour>
  </outline>
</glyph>
